<svg xmlns="http://www.w3.org/2000/svg" viewBox="0 0 650 350" class="svg-map" role="none" aria-label="Map of India (Assam)"><path id="023" name="lakhimpur" d="M394.8,62.6c-1.6,2.2-1,2.1-1.5,4.2c-0.2,0.9-2.2,2.9-1.7,4c0.1,0.3-0.3,3.4-0.5,3.9l-0.9,1.8l0,0c-0.4,0.4-0.6,0.7-1.1,1c-0.3,0.2-1,0.3-1.2,0.5c-0.6,0.6-0.4,0.7-1,1.5l-0.1,0c-1.5,0.6-1.3,3.2-2.5,1.3c-0.6-0.9-1.1-0.7-1.4,0.2c-0.5,1.7-1.5,0.7-2.4,0.7c-1.4,0-1.2,2.7-3.9,2c-3.5-1-3.2,1.8-5,1c-1.4-0.6-1.4,1.5-2.5,0.9c-1.5-0.9-0.8-2-2.1-1.5c-1.3,0.5-2.3,2.2-3,2.7c-0.4,0.2-0.3,0.3-0.4,0.5c-0.6,0.7-0.5,1.4-0.7,1.8c-0.3,0.6-1.1,0.5-1.6,0.5l-0.1,0c-1,0.2-1.1,0.8-1.3,1.7c-0.3,1.7-1.5,1.1-2.3,1.3c-1.7,0.4-1.4,1.6-2,2.1c-0.9,0.8-1.5-0.6-2.6,0c-2,1.1-2-1.1-2.5-1.2c-0.7,0-2.6,2.2-3.3,2.7c-0.5,0.3-0.1,1.1-0.4,1.5c-0.7,1.2-1.2-0.1-1.9-0.1c-0.3,0-1.8,1.1-2,1.2c0,0-1.7-0.5-1.9-0.5c-0.5,0-1.2,0.4-1.5,0.7c-0.2,0.3-0.6,0.8-0.8,1.1c-0.6,0.6-1.7,1.7-1.7,2.6c0,1-0.6,1.7-1.6,1.9c-1.4,0.2-2.2,0.3-3,1.6c-0.2,0.4-1.1,1.4-1.7,1.2c-1.5-0.4-1.6-0.3-2.7-1.6l0,0l-0.1-1.8c0-0.1,0-0.2,0-0.4c0-1.2-0.8-1.5-1.7-2.1c-0.7-0.5-0.8-1.5-0.6-2.3c0.3-1.2-0.1-1.7,0-2.2c0.2-0.7-0.1-1.2-0.6-1.8c-0.6-0.6-0.4-0.2-1.1-1.2l-2-1.3l0,0c0.2-0.2,0.4-0.5,0.7-0.8c0.8-0.9,1.4-1.3,2.3-2c0.8-0.7,1.4-1.1,2.2-1.9c0.5-0.4,1.9-0.9,2.5-1.2c1-0.5,2.4-0.3,2.9-1.6c0.3-0.6-0.4-1.1-0.6-1.9c-0.2-0.6-0.3-0.7-0.5-1.4c-0.5-2.3-3-1.2-0.3-4c0.3-0.3,0.8-0.7,1-1c0.7-1.1,1-1.1,1.8-2c1.6-1.9,3.7-3.4,5.1-5.5c0.5-0.7,1.3-1.3,1.9-2.1c0.7-1,1.2-1.5,2-2.4c0.8-0.8,1.2-1.5,2.1-2.4c0.9-0.8,1.7-1.7,2.9-1.8c1.1-0.1,2.2-0.5,2.5-1.7c1-1.6,0.6-1.6,2-2.9c0.8-0.7,1.2-1.7,2.2-2.4c0.8-0.6,1.4-1.5,2.1-2.2c0.9-0.9,0.9-1.2,1.4-2.3c0.6-1.4,2.9-2.1,4.3-2.2c1.3-0.1,3.4-1.3,3.7-2.6l0,0l1.3,2.8c0.3,1.3,0.4,2.2,1.1,3.3c0.4,0.5,0.3,2.3,0.8,3.2c0.3,0.5,0.5,2.6-0.2,3.2c-0.7,0.5-4.3-1.9-2.7,1.2c0.7,1.3,2.3,1.5,2.4,2.7c0,0.2,0.5,0.8,0.6,1c1.2,1.2,2,1.7,3,0c0.6-1,1.7-1.3,2.7-0.7c1.8,1.1,2-0.7,4.3,1.5c1.9,1.9,2.1,0.2,4.2-0.4c0.8-0.2,1,0.4,2.2-0.5c1.3-0.9,3-0.4,4.7-2.1c0.2-0.2,1.7-1.2,1.8-0.6c0.2,1.4,3.4-0.3,2.6,1.9C394.8,61.7,394.5,62.1,394.8,62.6L394.8,62.6L394.8,62.6z" class="svg-map__location" tabindex="0" role="none" aria-label="lakhimpur"></path><path id="017" name="jorhat" d="M345.9,108.7c4.4-0.4,6.6,0.2,9.8-2.6c2-1.7,4-2.4,6.7-2.6c2.2-0.2,10.4-0.8,11.5-2.7c0.2-0.3,1.1-0.8,1.2-1l1.8-3.5l0,0c1,0.9,1.1,1.2,2.1,1.3c1.2,0.1,4.6-0.4,3.7,1.4c-0.5,0.9-0.3,2.5,0.8,3.1c2.1,0.9,0.5,2.7,1.1,4.6l0,0.2c1.4,2.1,1.2,1.2,1.9,2c0.8,1-0.5,2.8,0.7,3.5c0.2,0.1,0.4,1.4,1.3,2c1,0.7,1.9,0.7,2.7,1.3c0.2,0.1,1.5,0.6,2.1,1l0,0c-0.1,0.6,0,0.8-0.2,1.5c-0.3,0.3-1.1,1-1.3,1.3c-0.2,0.3-1.8,1.1-2,0.3c-0.2-0.8,0.4-1-0.7-1.2c-0.8-0.2-1.6,0.4-2.1,1c-1,1.2-2.7,2.5-4.4,2.9c-0.7,0.2-1,0.1-0.8,1.1c0.3,1-0.3,1.9-1.3,2.3c-1.1,0.4-3.6,0.8-3,2.6c0.6,1.7,0.5,1.7,0.1,3.4c-0.4,1.6-1,2.8-2.5,3.6c-0.5,0.3-1.1,0.3-1.2,0.8c-0.2,1.1-1,1.2-1.8,1.8c-0.7,0.5-1.1,2.7-2.4,1.8c-0.3-0.2-1.3-2.1-1.5-2.5c-0.7-2-0.6-1.8-0.5-3.9c0-0.3,0.4-2,0.4-1.9c-0.5,0.2-1.7,1.9-2.6,2.4c-0.6,0.3-1.1,1-1.4,1.6c-0.6,1.2-0.5,1-1.5,2.1c-0.1,0-0.3,0.3-0.4,0.4c-0.8,0.9-1.2,2.2-1.8,2.9c-1.2,1.4-1.2,1.7-1.4,3.6c-0.1,1.1,0,5.4-0.2,6c-0.2,0.6-1.9,1-2.5,1.1l0.3,0c0-0.2-0.3-2.4-0.4-2.7c-0.2-0.5-0.6-3.1-1-4c-0.6-1.4,1.3-2.7,0-5.5c-0.6-1.4-2.3-2.5-1.5-3.9c0.7-1.2,0.5-1.1,1-2.7c-0.2-1.2,0.2-2.6-0.6-3.6c-2.2-2.7-0.1-4.4-1.4-5.6c-1.8-1.8-1.7-2.6-2.8-4.6c-1.2-2.1-1-0.8-1-3.6c0-1-0.9-2.7-1.7-3c-1.8-0.7-1.8-2.2-1.4-3.9l0,0V108.7z" class="svg-map__location" tabindex="0" role="none" aria-label="jorhat"></path><path id="024" name="majuli" d="M318,111.6c-0.3-0.8,0.1-2,1.3-1.5c1.9,0.8,3.2-3.2,4-1.7c0.6,1,2.2,1.5,2.4-0.4c0.1-0.8,0.7-1.9,1.6-1.8c0.1,0,0.5,0,0.5-0.1l0,0c1.1,1.3,1.2,1.1,2.7,1.6c0.5,0.2,1.4-0.8,1.7-1.2c0.7-1.3,1.6-1.4,3-1.6c1-0.2,1.6-0.9,1.6-1.9c0-0.9,1.1-2,1.7-2.6c0.2-0.3,0.6-0.8,0.8-1.1c0.2-0.4,1-0.7,1.5-0.7c0.1,0,1.8,0.5,1.9,0.5c0.2-0.1,1.7-1.2,2-1.2c0.7,0,1.2,1.3,1.9,0.1c0.2-0.5-0.1-1.2,0.4-1.5c0.7-0.5,2.6-2.8,3.3-2.7c0.5,0,0.5,2.3,2.5,1.2c1.2-0.6,1.8,0.7,2.6,0c0.5-0.5,0.2-1.7,2-2.1c0.8-0.2,2,0.4,2.3-1.3c0.2-0.9,0.4-1.5,1.3-1.7l0.1,0c0.5,0,1.3,0.1,1.6-0.5c0.2-0.5,0.1-1.1,0.7-1.8c0.2-0.2,0.1-0.3,0.4-0.5c0.8-0.5,1.7-2.1,3-2.7c1.3-0.5,0.6,0.5,2.1,1.5c1.1,0.7,1.1-1.5,2.5-0.9c1.8,0.8,1.5-1.9,5-1c2.6,0.7,2.5-2,3.9-2c0.9,0,1.9,0.9,2.4-0.7c0.3-1,0.8-1.1,1.4-0.2c1.2,1.9,1-0.7,2.5-1.3l0.1,0c0.6-0.8,0.4-0.9,1-1.5c0.2-0.2,0.9-0.3,1.2-0.5c0.5-0.3,0.7-0.6,1.1-1l0,0l2.5,2.7l0,0c-1.1,1.5-2,2.7-2.9,4.3c-0.8,1.5-1.7,2.5-3,3.6c-1.2,1-1.2,1-2.5,1.8c-1.5,0.9-0.5,2.4-2.6,3.6c-0.6,0.3-1.7,1.5-2.4,2c-0.3,0.2-2.1,1.4-2.3,1.7l0,0l-1.8,3.5c0,0.2-1,0.7-1.2,1c-1.1,1.9-9.4,2.5-11.5,2.7c-2.6,0.2-4.7,1-6.7,2.6c-3.2,2.7-5.5,2.2-9.8,2.6l0,0c-1.8-0.5-1.6-0.2-2.7,1.2c-0.9,1.3,0.1,1.8-1.2,3.2c-0.9,0.9-1.5,1.3-2.8,1.7c-1,0.3-3,0.2-3.5-0.8c-0.5-0.8-2.1-2.1-2.5-2.7c-1-1.4-3.6-1.8-4.9-0.9c-0.8,0.6-2.6,1.3-3.6,1.5c-1.7,0.2-1.1-0.7-3.5,0L318,111.6L318,111.6L318,111.6z" class="svg-map__location" tabindex="0" role="none" aria-label="majuli"></path><path id="026" name="nagaon" d="M290.5,119.1c0.1,1.7,0.4,2.4-0.1,4c-0.3,1.1,0.6,1.6-1.4,2.2c-1.3,0.4,0.4,1.8,0.4,3.4c0,0.1,0,0.2,0,0.2l-0.1,1.2l0,0l-0.1,0c-0.5,0.1-0.9,0.5-1.4,0.4c-1.1,0-1.1,0.1-1.9,0.3c-0.8,0.2,0.1,2,0.3,2.6c0.2,0.5,1,1.5,1,1.5c0,1.2-1.7-0.4-1.9-0.5c-0.9-0.5-2.2-2-2.6-0.3c-0.6,2.4-0.9-0.5-1.1-0.8c-0.9-1.1-0.1-1.6-0.1-2.4c0-0.9-3.9,1.2-4,1.3c-0.3,0.1-0.2,0.1-0.5,0.2c-1.4,0.7-2.8,1.8-4.3,0.8c-1.2-0.9-2.9-0.5-3.3,0.9c-0.6,2.3-1.9,2-2.7,3c-1.4,1.7,2.7,1.1,3.3,1c1.2-0.1,1.4-0.9,1.8-0.7c0.5,0.4-0.3,1.9,1.2,1.8c1-0.1,2.1-1.1,2.5-1.1c0.3,0-0.7,2.1-0.8,2.7c0,0.4-1.3,1.3-1.5,1.4c-1.5,0.8-0.3,0.9-3,1.4c-1-0.1-1.4-1-1.5-1c-0.1,0-2.1,1.1-2.6,1.3c-1.1,0.4-1.9-0.2-2.2,0.2c-1.7,1.8-1.3,1.7-3.7,1.7c-3.3,0-1.9,1.9-1.3,2c1.1,0.4-0.3,1.6,1,2.1c1.7,0.7,0.5,2.4-0.2,2.7c-3.5,1.5-1.5,2.2-3,2.7c-0.8,0.3-3-2-3.1-1c-0.1,0.9-0.8,2.3-1.1,3.1c-0.4,1.3-1.4,1.1-1,2.1c0.7,1.8,0.7,1.2-0.4,3.2l0,0c-1-0.1-0.9-0.5-1.2,0.1c-0.2,0.4-0.2,0.7-1,0.7c-1.5,0-0.3,0.9-1.2,0.9c-1.5,0-0.8,1.5-0.9,2.3c-0.1,1.2-1.6,1.2-2.5,1.1c-1.1-0.2-2.7,1.4-1.6,1.7c0.2,0,1.4,0.7,1.4,0.9c0,0.1-1.5,1.3-0.3,1.6c1.4,0.3,1.5,0.6,2,1.8l0.4,1.8l0,0c-1,0-2.7-0.5-3.2,0.6c-0.5,1,0.2,1.9-0.4,2.5c-0.7,0.7-1.8,0.1-2.4,0.1c-1.7-0.1-1.7,2.7-3.2,3c-1.7,0.3-2.3,0.5-3.8,1.5c-0.6,0.4-1.5,0.6-2.2,0.3c-1-0.4-0.9-0.6-0.4-1.5c0.4-0.7,1.2-1.4,1-2c-0.1-0.2,0.9-0.9,1-0.9c1.3-0.7,0-1.3,0.2-2c0.1-0.5,0.2-0.5,0.3-1.2c0-0.1,0-0.1,0.1-0.2c0.3-0.9,1-1.5,0.2-2.3c-0.7-0.7-0.8-0.5-1.5-1.4c-0.5-0.7-0.3-0.9-0.6-1.4c-0.2-0.5-1.6,0.5-1.8,0.7c-0.5,0.4-1.3,1-1.7,0.1c-0.4-1-0.5-1.5-0.1-2.5c0.2-0.4,0.2-0.8,0.3-1c0.5-1.1-0.9-0.2-1.6-0.4c-1.1-0.4-2.1,1-2,2c0,0.8-1.3,1.2-1.9,1.2c-0.6,0-1.6,1.7-2.5,1.1c-0.9-0.6-0.4-0.7-1.8-1.1l0,0c0-0.2,0-0.5,0-0.7c-0.1-0.8,0-1.9,0.6-2.5c0.7-0.6,0.4-1.6,0.8-2.6c0.7-1.5,0.8-2.1,0.3-3.7c0-0.7-0.2-1.4-0.6-1.9c-0.6-1-0.1-1.6,1-1.8c0.7-0.1,0.7-0.1,1.5-0.3c0.7-0.2,2.6-1.2,3.2-1.1c1.7,0.3,1.7,0.6,3-0.7c1.6-1.6,1.5-1.6,2.4-3.6c0.6-1.6,0.6-2,0.5-3.6c-0.1-0.8,0.1-0.6-0.5-1c-0.3-0.2-2.4,0.1-2.6,0.1c-1.2-0.1-0.7-0.2-2,0.1c-1,0.2-1.5,1.1-2.1,0.7c-1.2-0.7-1.3-0.3-1.8-0.4c-1.4-0.3-0.8-1.7-1.2-2.9c-0.4-1.2-0.6-1-0.2-2.2c0.3-0.9,0.8-0.7,0.7-1.9c-0.1-1-0.9-1.7-1.4-2.5c-0.7-1.1-0.7-1.6-0.3-2.9l0,0c2-0.9,1.4-0.6,2.4,0.5c1,1.2,3.7-0.2,5.4,0.2c2.2,0.5,2.6,0.8,4.9,0.1c1.4-0.4,3.1-0.4,4.8-0.9c2.1-0.6,2.4,1.5,3.7-0.7c0.7-1.2,2.2-0.9,3.1,0c0.8,0.8,2,0.7,2.2-0.6c0.1-0.8,1.2-2.3,2.3-2.1c2.5,0.3,1.5-1.3,4.2-2.1c1-0.2,1.7-0.5,2.7-0.7c1.7-0.4,1.3-0.3,2.5-0.4c1.4-0.1,2-2.7,4.3-2.9c1.1-0.1,1.7-0.2,2.8,0c1.1,0.3,0.8-0.2,1.2,1.1c0.5,1.5,1.8,0.1,3.3,0.6c1.4,0.5,1.8,0.2,3.1,1.6c0.7,0.8,2.3-0.3,3.5-0.4c0.4,0,1.5-0.3,2.1-0.4l0,0c2.2-2.6,1.4-2,4.3-3.2c1.6-0.6,0.5-1.6,1.7-3.1c2-2.7,1.2-0.9,3.8-2.1C288.4,120.2,289.9,119.1,290.5,119.1L290.5,119.1L290.5,119.1z" class="svg-map__location" tabindex="0" role="none" aria-label="nagaon"></path><path id="014" name="golaghat" d="M290.5,119.1c0.1,1.7,0.4,2.4-0.1,4c-0.3,1.1,0.6,1.6-1.4,2.2c-1.3,0.4,0.4,1.8,0.4,3.4c0,0.1,0,0.2,0,0.2l-0.1,1.2l0,0c1.7-0.5,3.6-0.9,5.3-0.6c0.8,0.1,0.6,0.2,1.7,0c1.7-0.3,1.6,1.6,3.5,0.8c0.6-0.2,1,1.4,3.2-0.9c0.6-0.6,1.2-0.8,1.9-1.6c0.5-0.6,0.5,1,2,0.9c1.1-0.1,1.2-0.7,3.1-0.7c0.7,0,2.7-0.5,2.3,0.6c-0.2,0.6,0.8,4.3,2.6,0.7c0.4-0.8,1.5-1.4,2.4-1.4c1.4-0.2,2.3-0.3,3.7,0.1c3.3,1.1,3.6,0.9,2.7,4.6c-0.4,1.6,2.4,1.6,2.6,3.9c0,0.5,1.7,2.7,1.7,4.2c0,0.2,0.3,2,0.4,2.3c1.1,2-0.8,3.9,0.2,4.3c0.7,0.3,2.9-1.8,3.3-2.4c0.7-0.9,1.4-0.9,1.4,0.4c0,1.7,2.9,1.3,2.9,2.9c0,1.3,0.1,0.8-0.2,2.3c0,0-0.1,1.1-0.1,1.1c0.4,2.7-0.5,2.5-1.2,4.8c-0.5,1.7-0.2,0.9-0.3,2.4c-0.1,1.4-1.8,2.5-1.7,4.9c0,0.4-1,1.7-1.1,3c-0.1,1.8,0.2,2.5-0.7,4.3c-0.3,0.7-0.2,1-0.7,1.9c-0.4,0.6-2,3.5-2.1,4c-0.1,0.6,0,0.7,0,1.2c0.8,2.1,0.5,1.5,0.8,3c0.4,1.6,0.5,0.8-0.6,2.5c-0.3,0.4-0.2,1.5-0.5,1.9l0,0c0.1,0,0.2,0.1,0.2,0.3c0.2,1.1,0.1,1.9,0.6,3c0.5,1.2-1,3.4-0.5,4.9c0.3,0.9,0,1.8,0.5,2.8c0.2,0.4,0.2,1.1,0.9,0.5c0,0,1.8-2,1.8-2c0.4-0.5,1.1-1.5,1.8-1c1.7,1.3,1.9,1,3.6-0.3c0.6-0.4,1.1-1.1,1.8-1.7c1.2-0.9,2.2-1.7,3.7-2.3c1-0.4,1-1.3,0.9-2.3c-0.1-0.9-0.5-2.2-0.8-3c-0.3-0.9-0.4-2.5-0.1-3.4c0.5-1.7,0.8-2.8,1.6-4.4c0.2-0.3,0.2-0.5,0.3-0.8c0.3-0.9,0.5-1.3,0.7-2.1c0.4-1.3,1-1.6,0.2-3.1c-0.6-1,1.5-0.9,0.9-3.4c-0.2-1,1.3-2.5,1.9-3.1c1.5-1.5,0-2.7,1.8-4.5c0.5-0.5,1-1,1.5-1.6c0.5-0.9,1.1-1.9,1.5-2.8c0.2-0.4,0.9-1.9,1.4-1.9c1.7-0.1,1-1.3,2.3-1.5l0.3,0c0-0.2-0.3-2.4-0.4-2.7c-0.2-0.5-0.6-3.1-1-4c-0.6-1.4,1.3-2.7,0-5.5c-0.6-1.4-2.3-2.5-1.5-3.9c0.7-1.2,0.5-1.1,1-2.7c-0.2-1.2,0.2-2.6-0.6-3.6c-2.2-2.7-0.1-4.4-1.4-5.6c-1.8-1.8-1.7-2.6-2.8-4.6c-1.2-2.1-1-0.8-1-3.6c0-1-0.9-2.7-1.7-3c-1.8-0.7-1.8-2.2-1.4-3.9l0,0c-1.8-0.5-1.6-0.2-2.7,1.2c-0.9,1.3,0.1,1.8-1.2,3.2c-0.9,0.9-1.5,1.3-2.8,1.7c-1,0.3-3,0.2-3.5-0.8c-0.5-0.8-2.1-2.1-2.5-2.7c-1-1.4-3.6-1.8-4.9-0.9c-0.8,0.6-2.6,1.3-3.6,1.5c-1.7,0.2-1.1-0.7-3.5,0l-3.2-0.2l0,0c0.8,2.2,0.2,2.5,0.5,4.3c0.1,0.7-0.1,1.9-0.8,2.1c0,0-3.2-0.9-3.8-0.9c-0.8,0-1.2-0.3-1.8-0.4c-2.7-0.5-1.3-1.5-3.8-2.6c-1.4-0.6-2.8-0.4-3.5-0.7c-1.9-0.7-4.1,1.8-7.3,1c-1.7-0.4-3,0.5-4,1.8C292.5,117.6,292.1,118.1,290.5,119.1L290.5,119.1L290.5,119.1z" class="svg-map__location" tabindex="0" role="none" aria-label="golaghat"></path><path id="003" name="biswanath" d="M278,128.8c2.2-2.6,1.4-2,4.3-3.2c1.6-0.6,0.5-1.6,1.7-3.1c2-2.7,1.2-0.9,3.8-2.1c0.6-0.3,2.1-1.4,2.7-1.3l0,0c1.5-1,2-1.5,3-2.8c1-1.3,2.3-2.2,4-1.8c3.2,0.8,5.4-1.6,7.3-1c0.7,0.2,2.1,0.1,3.5,0.7c2.5,1,1.1,2.1,3.8,2.6c0.6,0.1,0.9,0.5,1.8,0.4c0.6,0,3.7,0.9,3.8,0.9c0.7-0.1,0.9-1.4,0.8-2.1c-0.3-1.8,0.3-2.1-0.5-4.3l0,0c-0.3-0.8,0.1-2,1.3-1.5c1.9,0.8,3.2-3.2,4-1.7c0.6,1,2.2,1.5,2.4-0.4c0.1-0.8,0.7-1.9,1.6-1.8c0.1,0,0.5,0,0.5-0.1l0,0l-0.1-1.8c0-0.1,0-0.2,0-0.4c0-1.2-0.8-1.5-1.7-2.1c-0.7-0.5-0.8-1.5-0.6-2.3c0.3-1.2-0.1-1.7,0-2.2c0.2-0.7-0.1-1.2-0.6-1.8c-0.6-0.6-0.4-0.2-1.1-1.2l-2-1.3l0,0c-0.2,0.2-0.5,0.5-0.9,0.7c-0.1,0.1-0.2,0.2-0.4,0.2c-2.5,1.3-5.6,2.7-8.4,2.8c-1.4,0-3.1,0.5-4.5,0.6c-1.2,0.1-2.2,0.9-2.8,0.9c-1.2,0-1.8-0.8-2.5-1.6c-0.3-0.4-2.7-0.8-3.2-0.8c-1.5,0-3.3-0.2-4.7-0.1c-1.2,0-2.6-0.1-3.7,0.1c-0.8,0-1.7,0.1-2.5,0.2c-3.8,0.4-7.7,1.3-11.4,2.3c-1.8,0.5-2.8,2.2-4.9,1.2c-0.5-0.2-0.9-0.3-1.3-0.3l0,0c0,0.2,0,0.9,0,1c0.1,2.5,1,1.6-0.3,4.1c-0.3,0.6-0.5,1.5-0.1,2c1.8,2.5-0.3,2.6,0.8,4.1c1.3,1.8-0.2,2.8,0.5,4.2c0.6,1.2,1.2,0.9,1,2c-0.3,2.3,1.1,1.9,2.1,3.1c0.9,1.1,0.9,3,1.5,3.9c0.6,0.9,0.4,0.8,0.8,1.7C277.3,126.7,277.4,127.3,278,128.8L278,128.8L278,128.8z" class="svg-map__location" tabindex="0" role="none" aria-label="biswanath"></path><path id="032" name="udalguri" d="M214.6,130c0.3-1.7,0-0.9,0-2.1c0-1,3-1.3,2.7-3.1c0-0.1-0.6-0.5-0.8-0.8c-0.1-0.2-0.6-0.3-0.7-0.5c-0.4-1.2-0.2-1-0.4-1.9c0-0.1-0.7-1.9-0.7-1.9c-0.4-0.6-0.7,0.6-0.7,1c0,2.3-1.3,2.8-0.9,1.5c0.2-0.8,0.2-1.6,0.3-2.5c0.2-1.2,0.1-2.4-0.5-3.5c-0.7-1.1-0.3-1.7-0.1-2.9c0.2-1.1,0.7-1.8,0.6-3.1c-0.1-0.9-0.1-0.8-0.4-1.6c-0.2-0.6,0-1.9,0-2.5c0.1-0.5,0.3-1,0.3-1.5s0.3-1.2,0.3-1.9c0-0.5,0.1-1.6,0.3-2.1c0.1-0.4,0.9-2,1.2-2.2l0,0c-0.5-0.1-0.9-0.1-1.5,0.1c-0.7,0.2-0.8,0.1-1.4,0.1c-2,0-1.7,1.8-3.4,2.1c-2.2,0.4-1.2-1.2-4.7,0.3c-1,0.4-1.5,0.2-2.3,0.6c-1.4,0.5-1.1,0.5-2.6,0.6c-1.5,0.1-2.2-0.2-3.6-0.2l0,0l-0.9,2c-0.2,0-0.6,0.2-0.8,0.3c-4.9,2.1-5.7,2.6-10.2-0.3c-2-1.3-3.7-1.6-5.2-3.7c-0.9-1.3-2.5-0.1-3.2,0.8c-1,1.2-2.2,2.2-3.2,3.4c-0.9,1.1-4.2,2.8-5.6,3.3c-1.2,0.4-2.3,0.8-3.5,1.2l0,0l0.5,3.5c0.5,1.6,0.6,2.7,1.4,4.2c0.4,0.7,0.6,2.2,0.4,3c-0.2,0.7-0.5,3.9,0,4.5c0.6,0.8,0.7,0.5,0.3,1.9c-0.2,0.7-0.2,2.2,0.7,2.5c0.5,0.2,1.2,0.9,1.2,1.5c0.1,0.7,0.7,2,0.7,2.8c0,1.5,1,2.2,1.2,3l0,0c1.4,0,0.8,0.2,1.7,0.4c0.8,0.2,1.7-0.1,1.4-1.1c-0.2-0.7,0.1-0.6-0.6-1.2c-0.4-0.4-0.5-1.3,0.2-1.5c1-0.4,0.3-1.7,1.3-2.3c0.5-0.3,0.9,1.9,1.2,2.3c0.4,0.6,0.4,0.5,0.7,1.3c0.3,0.9,1.8,0.4,2.2-0.7c0.4-1.1,1.1-2.1,2.4-1.9c1,0.2-0.5,2.2,1.2,2.2c1.3,0,1.3-1.4,3-0.7c0.7,0.3,0.4,0.1,0.9,0.6c0.5,0.5,1.5,0.9,2.2,0.6l0.1,0c1.3,1.1,1.2,0.7,1.3,2.2c0,0.5,0.7,0.8,0.9,1.8c0.1,0.7,0.5,1.1,1.1,0.6c1-0.8,1.1-1.1,1.2-2.3c0-0.5,0.2-1,0.2-1.6c0-2.4,1.5-1.1,2.3-2.6c0.1-0.2-0.6-1-0.7-1.4c-0.2-0.6-0.5-1.3-1.2-1.1c-1,0.2-0.5,3.5-2.3,3c-0.3-0.1-0.3-0.3-1.1-0.3c-0.9,0-1.7-0.7-1.7-1.6c0-1.2,0.9-0.8,1.5-1.9c0.5-0.8,0.5-2,1.6-2.1c1.9-0.1,1.3-2.1,2.6-2.5c1.1-0.3,1.2,0.6,3.2-0.5c1-0.5,2.3-1,3.4-1.3c0.6-0.3,1-0.5,1.5,0c0.3,0.3-0.2,0.7,0.5,1.4c0.2,0.2,0.9,1.1,1,1.4c0.2,0.5,0.2,0.5,0.3,1.1c0.2,0.8,1.9,0.1,1.4,2.8c-0.1,0.4-0.3,2.7-0.2,2.8c0.2,0.2,1.4-0.5,2-0.5c1,0,0.2-1.5,0-2c-1-3.3,1.7-1,1.8-3.5c0-0.7,0.4-3.3,1.5-1.7c0.4,0.6,0,1.8,1.2,2.4c0.6,0.3,0.4,1.2,0.9,1.9c0.3,0.4,0.7,1,1.2,1.2L214.6,130L214.6,130L214.6,130z" class="svg-map__location" tabindex="0" role="none" aria-label="udalguri"></path><path id="029" name="sonitpur" d="M213.9,136.4c-0.5-0.6-0.8-1-0.5-1.8c0.2-0.4,1.6-0.4,2.2-0.6c1-0.5,0.4-1,0.1-1.8c-0.1-0.3-0.4-0.7-0.6-1l-0.5-1.3l0,0c0.3-1.7,0-0.9,0-2.1c0-1,3-1.3,2.7-3.1c0-0.1-0.6-0.5-0.8-0.8c-0.1-0.2-0.6-0.3-0.7-0.5c-0.4-1.2-0.2-1-0.4-1.9c0-0.1-0.7-1.9-0.7-1.9c-0.4-0.6-0.7,0.6-0.7,1c0,2.3-1.3,2.8-0.9,1.5c0.2-0.8,0.2-1.6,0.3-2.5c0.2-1.2,0.1-2.4-0.5-3.5c-0.7-1.1-0.3-1.7-0.1-2.9c0.2-1.1,0.7-1.8,0.6-3.1c-0.1-0.9-0.1-0.8-0.4-1.6c-0.2-0.6,0-1.9,0-2.5c0.1-0.5,0.3-1,0.3-1.5s0.3-1.2,0.3-1.9c0-0.5,0.1-1.6,0.3-2.1c0.1-0.4,0.9-2,1.2-2.2l0,0c0.4,0,0.7,0.1,1.2,0.2l0.2,0c2.2,0.3,2.1-0.6,3.5-1.7c1-0.7,2.2-1.1,3.4-1c1.4,0.2,4-0.2,5.5-0.3c1.1,0,2-0.2,3.2-0.2c2,0,2.4,0,4.2-1c1.2-0.6,1.3-1.2,1.2-2.4c0-0.3,0-0.4,0.1-0.6c0.6-1,0.2-1,0.5-1.6c0.4-0.6,0.7-0.4,1.5-0.4c0.6,0,1.5,0.2,2.2,0.3c1.4,0.1,2.3-0.1,3.7-0.1c2-0.1,2-0.4,4,0.2c1.6,0.5,3.4,0.9,4.9,1.6c0.5,0.2,1,0.3,1.6,0.6c1,0.4,2,0.7,2.4,1.8c0.5,1.5,0.9,1.5,2.3,2.3c0.5,0.3,1,0.7,1.5,0.9c1,0.4,1.7,1,2.8,1.4c1.6,0.6,1.6,0.9,3.5,1c0.9,0,1.5-0.2,2.1-0.1l0,0c0,0.2,0,0.9,0,1c0.1,2.5,1,1.6-0.3,4.1c-0.3,0.6-0.5,1.5-0.1,2c1.8,2.5-0.3,2.6,0.8,4.1c1.3,1.8-0.2,2.8,0.5,4.2c0.6,1.2,1.2,0.9,1,2c-0.3,2.3,1.1,1.9,2.1,3.1c0.9,1.1,0.9,3,1.5,3.9c0.6,0.9,0.4,0.8,0.8,1.7c0.5,1.3,0.6,1.9,1.3,3.4l0,0c-0.7,0-1.7,0.3-2.1,0.4c-1.2,0-2.8,1.2-3.5,0.4c-1.3-1.4-1.7-1.1-3.1-1.6c-1.5-0.5-2.8,1-3.3-0.6c-0.4-1.3-0.1-0.8-1.2-1.1c-1.1-0.3-1.7-0.1-2.8,0c-2.4,0.2-3,2.7-4.3,2.9c-1.2,0.1-0.9,0-2.5,0.4c-1,0.2-1.7,0.4-2.7,0.7c-2.7,0.7-1.7,2.4-4.2,2.1c-1.1-0.1-2.2,1.3-2.3,2.1c-0.2,1.3-1.3,1.4-2.2,0.6c-0.9-0.9-2.3-1.2-3.1,0c-1.3,2.1-1.6,0-3.7,0.7c-1.7,0.5-3.3,0.5-4.8,0.9c-2.3,0.7-2.7,0.3-4.9-0.1c-1.7-0.4-4.4,1-5.4-0.2c-1-1.2-0.4-1.5-2.4-0.5l0,0c-0.3-0.3-1.2,0-1.6,0.1c-1.1,0.4-1.3-0.4-2.2,0C214.8,136.1,215.6,136.4,213.9,136.4L213.9,136.4L213.9,136.4z" class="svg-map__location" tabindex="0" role="none" aria-label="sonitpur"></path><path id="018" name="kamrup-metro" d="M182.9,157.4c0.8,1,0.7,1.1,1.4,1.9c1,1.1,4.8,0.4,5.4,2.5c0.5,1.7,1.7,1.1,2.4,2.3c1.2,2,5.4,0.2,6.6,3.3c0,0.1,1,4.7,1,4.7c0,0.6,0.2,2.5,0.2,3l0,0c-0.5,0-0.9,0.7-1.6,1.1c-1,0.5-1.8,1.1-2.9,1.2c-1.1,0.1-0.8-0.2-2.2,0.2c-0.3,0-0.7,0.1-1,0.2c-1,0.2-2.7,0.6-3.7,0.6c-2,0-2-0.7-3.9,0.3c-1.1,0.5-4.2,3.8-5,1.2c-0.4-1.4-1.4-1.1-2.5-1.9c-1.1-0.8-1-3.2-0.6-4.3c0.2-0.8-0.7-1.2-1.3-1.4c-1.5-0.5-1.8-0.4-2.8-1.6c-0.4-0.4-1,0.5-1.3,0.7c-1,1.1-1.9,1.4-2.9,2.3c-1.4,1.2-1.2,1.1-3,2.1c-0.7,0.8-0.7,2.2-0.6,3.2l0,0c-0.2-0.1-3.6-2.1-3.9-2.2c-1.1-0.4-2.3-1.2-3.1-1.5c-0.9-0.3-2.9-0.6-3.9-0.5c-2.8,0.2,0.3-1.8-1.4-3.1c-1.8-1.2,0.4-3,1.9-3.1c1.2-0.1,2-1.5,2.9-1.2c0.8,0.3,1.4-1.3,1.5-1.7c0.1-1.4,0.8-1.8,0.9-2.3c0.1-0.6,1.5-3.3,2-3c0.4,0.2,1.5,1.5,1.7,2c0.7,1.9,3.5,0.1,4.6-0.5l0.1-0.3c3.1,2,2.7,0.7,5.5-0.3c2.5-0.9,3.3,0.5,6-1.3c1.2-0.8,1.9-1.3,3.1-2.3C182.5,157.6,182.7,157.5,182.9,157.4L182.9,157.4L182.9,157.4z" class="svg-map__location" tabindex="0" role="none" aria-label="kamrup-metro"></path><path id="025" name="morigaon" d="M213.9,136.4c1.7,0,0.9-0.3,1.9-0.8c0.8-0.4,1.1,0.4,2.2,0c0.4-0.1,1.3-0.5,1.6-0.1l0,0c-0.3,1.2-0.3,1.8,0.3,2.9c0.5,0.8,1.3,1.5,1.4,2.5c0.1,1.2-0.4,1-0.7,1.9c-0.4,1.3-0.2,1,0.2,2.2c0.4,1.2-0.2,2.5,1.2,2.9c0.5,0.1,0.7-0.4,1.8,0.4c0.6,0.4,1.2-0.5,2.1-0.7c1.2-0.2,0.7-0.2,2-0.1c0.2,0,2.3-0.3,2.6-0.1c0.6,0.4,0.5,0.2,0.5,1c0.1,1.7,0.2,2.1-0.5,3.6c-0.8,2-0.8,2-2.4,3.6c-1.3,1.3-1.3,1-3,0.7c-0.6-0.1-2.5,0.9-3.2,1.1c-0.7,0.2-0.7,0.2-1.5,0.3c-1.1,0.1-1.6,0.8-1,1.8c0.4,0.5,0.6,1.3,0.6,1.9c0.5,1.6,0.4,2.2-0.3,3.7c-0.4,1-0.1,2-0.8,2.6c-0.6,0.6-0.7,1.7-0.6,2.5c0,0.2,0,0.5,0,0.7l0,0l-0.7,0.2c-0.6,0.4-0.9,1.2-1.3,1.6c-0.5,0.5-0.6,1.2-1.5,1c-0.7-0.1-0.7,0.3-1.3,0.1c-0.8-0.2-0.3-0.2-1.6-0.5l-1.2,1l0,0c-0.1-0.1-0.3-0.1-0.6,0c-1.4,0.2-2.6,0.5-4,0.7c-1.1,0.1-1.2-0.1-2-0.1c-1,0-3.1,0.7-3.9,0.1c-0.2-0.1-0.3-0.2-0.4-0.2l0,0c0-0.5-0.2-2.3-0.2-3c0-0.1-0.9-4.6-1-4.7c-1.1-3-5.4-1.3-6.6-3.3c-0.7-1.2-1.9-0.6-2.4-2.3c-0.5-2.1-4.4-1.4-5.4-2.5c-0.7-0.8-0.6-0.9-1.4-1.9l0,0c1.7-0.8,1.7-0.8,3.3-0.6c1.7,0.2,3.5,0.5,4.6-1.1c0.6-0.9,0.2-2.2,1.5-2.8c1.2-0.6,2.7-2.9,3.8-3.9c0.2-0.2,2.9-4,3-4.3c0.4-0.7,1.8-1.1,2.8-0.6c1.3,0.7,2.6-0.7,3.2-1.7c0.9-1.6,3.7-0.9,5.4-3.6C210.8,138,213.2,136.5,213.9,136.4L213.9,136.4L213.9,136.4z" class="svg-map__location" tabindex="0" role="none" aria-label="morigaon"></path><path id="008" name="darrang" d="M168.4,139.2c-1.3,2.3-0.6,2.3,0,4.2c0.6,2.2,1.5,1.9,2.8,3.6c0.6,0.8,1.8,4,1,4.8c-1.2,1.1-3,1.3-2.7,3.9c0,0.4,0.2,0.9,0,1.3c-0.7,1.2-0.9,1.2-1,2.3c-0.1,0.8-0.2,1.2-0.5,1.9c0,0.1-0.1,0.4-0.2,0.5l0.1-0.3c3.1,2,2.7,0.7,5.5-0.3c2.5-0.9,3.3,0.5,6-1.3c1.2-0.8,1.9-1.3,3.1-2.3c0.1-0.1,0.4-0.2,0.5-0.2l0,0c1.7-0.8,1.7-0.8,3.3-0.6c1.7,0.2,3.5,0.5,4.6-1.1c0.6-0.9,0.2-2.2,1.5-2.8c1.2-0.6,2.7-2.9,3.8-3.9c0.2-0.2,2.9-4,3-4.3c0.4-0.7,1.8-1.1,2.8-0.6c1.3,0.7,2.6-0.7,3.2-1.7c0.9-1.6,3.7-0.9,5.4-3.6c0.4-0.7,2.7-2.2,3.5-2.3l0,0c-0.5-0.6-0.8-1-0.5-1.8c0.2-0.4,1.6-0.4,2.2-0.6c1-0.5,0.4-1,0.1-1.8c-0.1-0.3-0.4-0.7-0.6-1l-0.5-1.3l0,0l-1.7-0.4c-0.5-0.2-0.9-0.8-1.2-1.2c-0.5-0.7-0.3-1.6-0.9-1.9c-1.2-0.6-0.8-1.7-1.2-2.4c-1-1.7-1.4,1-1.5,1.7c0,2.4-2.7,0.1-1.8,3.5c0.1,0.5,0.9,2,0,2c-0.6,0-1.9,0.6-2,0.5s0.1-2.5,0.2-2.8c0.5-2.8-1.2-2-1.4-2.8c-0.1-0.5-0.1-0.6-0.3-1.1c-0.1-0.3-0.8-1.2-1-1.4c-0.7-0.7-0.2-1.1-0.5-1.4c-0.5-0.5-0.9-0.3-1.5,0c-1.1,0.2-2.4,0.7-3.4,1.3c-2,1.1-2.1,0.2-3.2,0.5c-1.3,0.4-0.7,2.3-2.6,2.5c-1.1,0.1-1.1,1.3-1.6,2.1c-0.6,1.1-1.5,0.7-1.5,1.9c0,1,0.8,1.6,1.7,1.6c0.8,0,0.7,0.2,1.1,0.3c1.8,0.5,1.3-2.9,2.3-3c0.8-0.2,1,0.5,1.2,1.1c0.1,0.4,0.9,1.2,0.7,1.4c-0.8,1.5-2.4,0.2-2.3,2.6c0,0.6-0.2,1.1-0.2,1.6c-0.1,1.2-0.2,1.5-1.2,2.3c-0.6,0.5-1,0.1-1.1-0.6c-0.2-1-0.8-1.3-0.9-1.8c-0.1-1.4,0-1-1.3-2.2l-0.1,0c-0.7,0.3-1.7-0.2-2.2-0.6c-0.5-0.5-0.2-0.3-0.9-0.6c-1.7-0.7-1.7,0.6-3,0.7c-1.7,0-0.2-2-1.2-2.2c-1.3-0.2-2,0.8-2.4,1.9c-0.4,1.1-2,1.6-2.2,0.7c-0.2-0.7-0.2-0.7-0.7-1.3c-0.3-0.4-0.7-2.6-1.2-2.3c-1,0.6-0.2,1.9-1.3,2.3c-0.6,0.2-0.6,1.1-0.2,1.5c0.7,0.7,0.4,0.5,0.6,1.2c0.3,1-0.6,1.2-1.4,1.1c-1-0.2-0.3-0.4-1.7-0.4l0,0c-0.4,0.8-0.3,0.6-0.1,1.2c0.1,0.2,0.7,0.8,0.8,1.4c0.1,0.6-0.2,0.6-0.7,0.8L168.4,139.2L168.4,139.2L168.4,139.2z" class="svg-map__location" tabindex="0" role="none" aria-label="darrang"></path><path id="012" name="dima-haso" d="M229.2,260.6l3.3-0.3c1.8,0,1.4,0.1,2.6,0.2c1.5,0.1,2.7-1.3,4.3-1.1c0.4,0,3.4,0.2,3.6,0.1c2.3-0.9,1-2.6,2.7-2.4c1.7,0.2-0.2,0.9,1.9,2.8c0.5,0.4,0.2,2,2.6,1.9c0.7,0,0.5-1,1.3,0.7c0.2,0.6,1.6,1.6,2.4,1.6c1.4,0,2.6-1.3,4.7-1.2c0.9,0,0.9-0.3,2,0c1.3,0.4,1.3-2.2,4.9-2c0.7,0,4.6-1.5,3.6-0.2c-0.2,0.3-1.5,2.5-1.5,3c-0.2,1.5,1.2,1.6,1.7,2.2c0.2,0.3,0.6,0.7,0.7,1.2c0.3,2.1,2,1.5,3.6,1.7c1.9,0.3,3.7-0.2,5.7,0.4c1.2,0.4,1.4,1,3.1,1.6c0.5,0.2,3.4,0.4,3.8,0.6l0,0c0-0.2,0.1-0.5,0.3-0.9c0.4-0.9-0.7-0.5-0.7-1.4c0-0.8,0.9-1.1,1-2.5c0.1-1.4,1.5-0.5,2.3-0.8c1.8-0.6,1.1-1.4,1.8-3c0.7-1.6,0.5-1,1.6-2.1c1.6-1.6,1.5-3.1,1.5-5.2c0-0.2,0-0.3,0-0.5c0.1-1,0.4-2.6,1.1-3.4c1.5-1.6,1.5-2.2,2.4-3.9c0.3-0.5,1.4-0.9,1.8-1.4c0.8-0.9,1.4-1.2,2.4-1.8c0,0,0.2-0.2,0.3-0.2l0,0c0.1-0.1,1.5-1.5,1.4-1.7c-0.3-0.6-1.3-1.9-1.2-2.5c0.3-1.1,1.5-2.2,1.6-2.6c0-1.1-0.4-2.6-0.8-3.6c-0.2-0.5-0.4-1.5-0.8-2.1c-0.6-0.7-0.5-0.7-1.5-1c-0.9-0.2-2.1-0.6-2.6-1.5c-0.5-0.8-0.9-1.7-1.4-2.5c-0.5-0.7-0.9-1.8-1.7-2.4c-0.5-0.3-1-1-1.6-1.5c-0.3-0.2-0.8-0.6-0.9-1v0c-1.7,0.3-2.5-0.1-3.7-0.2c-1,0-1.3,1.2-2.2-0.2c-0.8-1.1-2.2-0.3-3.2-0.6c-2.6-0.7-1.7-2.7-2.6-3.6c-0.6-0.7-0.8-1.2-0.6-2.2c0.1-0.5,0.7-1.5,0.6-1.8c-0.2-0.8-0.7-0.6-1-1.9c-0.2-0.8-2.7-0.1-2.7-1.7c0-0.9-0.5-1.8-0.3-2.5c0.2-0.8,0.1-0.9,0.8-1.5l0,0c-0.1-0.2-0.3-0.3-0.4-0.7c-0.4-1.7,0.5-1.1-0.8-3c-0.3,0-0.9-0.2-1.1-0.3c-0.5-0.3-0.5-0.1-0.8-0.2c-0.6-0.2-1.3,0.1-1.5,0c-0.8-0.3-0.2-0.8-1.7-0.8c-0.7,0-2.1-2-2.5-2.5l0,0c0,0-2.5,1.6-2.2,0.5c0.2-0.8-0.2-2.9-1.4-2.4c-0.5,0.2,0,3.5-1.3,3.2c-0.6-0.2-0.8-2.4-1.7-1.6c-1.4,1.3-1.2-0.5-2,2.5c-0.2,0.6-0.6,0.9-1.2,0.8c-0.2,0-1.4,0.6-1.7,0.8c-0.5,0.4-0.9,0.6-1.6,0.5c-1.1-0.2-2.9,0.7-3.5,1.7c-0.3,0.5-0.6,1-0.9,1.5c-0.2,0.9-0.5,1.5-1.2,2.1c-0.5,0.5-1.8,0.4-1.8,1.9c0,0.7,1.2,0.6-0.7,2.4c-1.2,1.1-0.1,1.6-1.4,2.8c-0.4,0.4-1.2,1.7-1.9,1.7c-1.3,0-0.8-1-2.5,0c-0.3,0.2-0.5,0.5-1,0.8c-0.7,0.4-1,0.4-1.9,0.7l0,0c-0.2,1.2-0.2,1.7-0.1,3c-0.6,0.6-1.3,1.2-2,1.7c-0.7,0.5-1.4,1-2.2,1.5c-0.5,0.4-1.7,1.3-2.1,1.8c-0.4,0.5-0.9,1.4,0.1,1.4c0.7,0,1.6,0.3,1.6,1.1c0,1.2-0.4,2.8,1.1,3.2c0.5,0.1,1.7-0.3,2.7-0.2c1.3,0.1,2.2,0,3.1,1.2c0.7,0.9,0.7,2,1.7,2.6c0.7,0.2,1.4,0.3,2.1,0.4c1.1,0,0.5,1.2,0.9,2.1c0.4,0.8,0.5,1.3,1.4,1.5c1.9,0.4,1.6,0.2,1.3,2.1c-0.1,0.5,0.3,1.6,0.3,2.5c0,1-0.7,0.8-0.9,2c-0.1,1.1-1.2,2,0.7,2.6c0.5,0.2,0.8,0.5,1.1,0.9c0,0.6,0,1.2-0.6,1.5c-0.6,0.2-0.9-0.5-2,0c-0.5,0.2-1.6,0.6-2.1,0.5c-0.8-0.2-2.2,0.2-2.9,0.7c-1.3,1-0.5,0.6-2.1,1.1c-1.1,0.4-1.3,1.8-2.1,2.6c-0.9,0.9-1.4,2-2.3,2.7l-0.1,0.1c-1.1,0.1-1.1-0.2-1.9-0.2c-0.5,0-2.5-0.1-2.9-0.3c-0.8-0.3-0.9-0.4-1.6-0.8c-1-0.5-0.2,0.6-0.1,1C229.4,259.3,229.5,260.3,229.2,260.6L229.2,260.6L229.2,260.6z" class="svg-map__location" tabindex="0" role="none" aria-label="dima-haso"></path><path id="020" name="east-karbi" d="M251.3,163c1.1-2,1.1-1.4,0.4-3.2c-0.4-1,0.5-0.8,1-2.1c0.3-0.8,1-2.3,1.1-3.1c0.1-1,2.3,1.3,3.1,1c1.4-0.5-0.5-1.3,3-2.7c0.7-0.3,1.9-2,0.2-2.7c-1.2-0.5,0.2-1.7-1-2.1c-0.6-0.2-2-2,1.3-2c2.4,0,2,0.1,3.7-1.7c0.3-0.3,1.1,0.3,2.2-0.2c0.5-0.2,2.5-1.3,2.6-1.3c0.1,0.1,0.5,0.9,1.5,1c2.6-0.5,1.5-0.6,3-1.4c0.2-0.1,1.5-1.1,1.5-1.4c0.1-0.7,1.1-2.7,0.8-2.7c-0.4,0-1.5,1-2.5,1.1c-1.5,0.1-0.6-1.4-1.2-1.8c-0.4-0.3-0.6,0.6-1.8,0.7c-0.7,0.1-4.7,0.7-3.3-1c0.8-1,2-0.7,2.7-3c0.4-1.3,2.1-1.7,3.3-0.9c1.5,1.1,3-0.1,4.3-0.8c0.3-0.1,0.1-0.2,0.5-0.2c0.1,0,4-2.2,4-1.3c0,0.8-0.8,1.3,0.1,2.4c0.3,0.3,0.5,3.2,1.1,0.8c0.4-1.7,1.7-0.2,2.6,0.3c0.2,0.1,1.9,1.7,1.9,0.5c0-0.1-0.8-1-1-1.5c-0.2-0.6-1.2-2.4-0.3-2.6c0.8-0.2,0.8-0.4,1.9-0.3c0.5,0,0.9-0.3,1.4-0.4l0.1,0l0,0c1.7-0.5,3.6-0.9,5.3-0.6c0.8,0.1,0.6,0.2,1.7,0c1.7-0.3,1.6,1.6,3.5,0.8c0.6-0.2,1,1.4,3.2-0.9c0.6-0.6,1.2-0.8,1.9-1.6c0.5-0.6,0.5,1,2,0.9c1.1-0.1,1.2-0.7,3.1-0.7c0.7,0,2.7-0.5,2.3,0.6c-0.2,0.6,0.8,4.3,2.6,0.7c0.4-0.8,1.5-1.4,2.4-1.4c1.4-0.2,2.3-0.3,3.7,0.1c3.3,1.1,3.6,0.9,2.7,4.6c-0.4,1.6,2.4,1.6,2.6,3.9c0,0.5,1.7,2.7,1.7,4.2c0,0.2,0.3,2,0.4,2.3c1.1,2-0.8,3.9,0.2,4.3c0.7,0.3,2.9-1.8,3.3-2.4c0.7-0.9,1.4-0.9,1.4,0.4c0,1.7,2.9,1.3,2.9,2.9c0,1.3,0.1,0.8-0.2,2.3c0,0-0.1,1.1-0.1,1.1c0.4,2.7-0.5,2.5-1.2,4.8c-0.5,1.7-0.2,0.9-0.3,2.4c-0.1,1.4-1.8,2.5-1.7,4.9c0,0.4-1,1.7-1.1,3c-0.1,1.8,0.2,2.5-0.7,4.3c-0.3,0.7-0.2,1-0.7,1.9c-0.4,0.6-2,3.5-2.1,4c-0.1,0.6,0,0.7,0,1.2c0.8,2.1,0.5,1.5,0.8,3c0.4,1.6,0.5,0.8-0.6,2.5c-0.3,0.4-0.2,1.5-0.5,1.9l0,0c-0.4-0.1-1.2,0.5-1.4,0.7c-1.3,1.2-2.6,1.4-3.8,2.5c-0.1,0.1-0.7,0.4-0.7,0.4c-0.7,0.3-1.2,0.9-1.1,1.7c0.2,1.7,0.2,2-0.3,3.6c-0.2,0.8-0.3,0.6-0.6,1.1c-0.2,0.5-1.4,1.4-1.8,1.5c-0.5,0.2-0.7,0.6-1.1,1c-1.2,1.2-2,2.8-3.4,3.8c-0.9,0.6-1.3,0.6-2,1.6c-1.1,1.1-2.5,2.2-2.5,3.9c0,1.4-1,1.3-1.7,1.7c-0.2,0.1-0.9,1.3-1.1,1.6c-0.2,0.2-1.3,1.2-1.6,1.4c-1.4,0.9-1.2,0.6-2.5,1.9c-0.8,0.8-1.6,0.5-2.3,0.8c-0.7,0.3-0.9,1.1-1.2,1.7c-0.7,1.6-1.6,0.7-2.3,1.8c-0.6,1-0.5,0.9-1.5,1.7c-0.5,0.5-1.8,1.2-2.5,1.6c-0.3,0.2-0.3,0.4-0.3,0.6v0c-1.7,0.3-2.5-0.1-3.7-0.2c-1,0-1.3,1.2-2.2-0.2c-0.8-1.1-2.2-0.3-3.2-0.6c-2.6-0.7-1.7-2.7-2.6-3.6c-0.6-0.7-0.8-1.2-0.6-2.2c0.1-0.5,0.7-1.5,0.6-1.8c-0.2-0.8-0.7-0.6-1-1.9c-0.2-0.8-2.7-0.1-2.7-1.7c0-0.9-0.5-1.8-0.3-2.5c0.2-0.8,0.1-0.9,0.8-1.5l0,0c1.6-0.2,1.4,0.1,2.6-0.5c1.4-0.6,1-0.1,2.3,0c1.1,0.1,2.3-0.6,1.8-1.8c-0.4-0.9-0.3-0.8,0.4-1.6c0.1-0.1,0.1,0,0.2-0.2c2.1-2.4,0.6-1.9,0.5-4.1c0-0.5-0.3-0.2-0.2-1.6c0-0.3-0.7-2.2-1-2.6c-0.4-0.5-1.2-3.1-2.2-3c-0.6,0-1.4-0.5-1.5-1.2c-0.2-1.1-0.3-0.3-0.1-1.8c0.1-1.2-1.6-2.1-1.8-3.7c-0.1-0.6-1-3-1.3-3.6c-1.1-2.3-3.2-0.7-3.9-2.5c-0.4-1,2.4-3.2-0.2-3c-0.6,0-3.2-0.5-3.4-1.5c-0.6-1.9-1.7-1.3-3-2.8c-1.2-1.4-6.9-0.9-5.9-2.2c0.7-0.9,2.1-1.7,1.5-2.9c-0.7-1.6-0.9-2.6-2.8-2c-1.2,0.4-2.1-1-3.3-0.7c-0.1,0-1.2,0-1.9,0.2c-0.4,0.1-1.1,0.2-1.5,0.2L251.3,163L251.3,163L251.3,163z" class="svg-map__location" tabindex="0" role="none" aria-label="east-karbi"></path><path id="016" name="hojai" d="M251.3,163c-1-0.1-0.9-0.5-1.2,0.1c-0.2,0.4-0.2,0.7-1,0.7c-1.5,0-0.3,0.9-1.2,0.9c-1.5,0-0.8,1.5-0.9,2.3c-0.1,1.2-1.6,1.2-2.5,1.1c-1.1-0.2-2.7,1.4-1.6,1.7c0.2,0,1.4,0.7,1.4,0.9c0,0.1-1.5,1.3-0.3,1.6c1.4,0.3,1.5,0.6,2,1.8l0.4,1.8l0,0c0,1.1-0.2,0.8-0.2,1.4c0,0.4,1.5,1.5,1.5,2.4c0,1.4-0.7,1.1-0.2,2.8c0.2,0.6,0.1,3.5,1.4,2.4c1.1-0.9,1.1,0,1,0.9c-0.2,1.4,1,2.3,2.3,2.4c2.1,0.1,2,2,3.1,3.2l0.1,0.1c1,0.8,1.5,1,2.7,1.1c0.5,0,4.1-0.6,4.6-0.7c0.6-0.2,2.1-0.8,2.6-0.2c0.7,0.8,1.1,1.3,1.7,2.2c0.6,0.9,0.5,1,1.3,1.7c0.4,0.4,1.1,1.1,1.1,1.7c0,0.6-0.1,0.8-0.5,1.2l-0.1,0.1l0,0c0.3,0.5,1.8,2.5,2.5,2.5c1.5,0,0.8,0.5,1.7,0.8c0.2,0.1,0.9-0.2,1.5,0c0.3,0.1,0.3-0.1,0.8,0.2c0.2,0.1,0.8,0.3,1.1,0.3c1.2,1.9,0.4,1.2,0.8,3c0.1,0.4,0.3,0.5,0.4,0.7l0,0c1.6-0.2,1.4,0.1,2.6-0.5c1.4-0.6,1-0.1,2.3,0c1.1,0.1,2.3-0.6,1.8-1.8c-0.4-0.9-0.3-0.8,0.4-1.6c0.1-0.1,0.1,0,0.2-0.2c2.1-2.4,0.6-1.9,0.5-4.1c0-0.5-0.3-0.2-0.2-1.6c0-0.3-0.7-2.2-1-2.6c-0.4-0.5-1.2-3.1-2.2-3c-0.6,0-1.4-0.5-1.5-1.2c-0.2-1.1-0.3-0.3-0.1-1.8c0.1-1.2-1.6-2.1-1.8-3.7c-0.1-0.6-1-3-1.3-3.6c-1.1-2.3-3.2-0.7-3.9-2.5c-0.4-1,2.4-3.2-0.2-3c-0.6,0-3.2-0.5-3.4-1.5c-0.6-1.9-1.7-1.3-3-2.8c-1.2-1.4-6.9-0.9-5.9-2.2c0.7-0.9,2.1-1.7,1.5-2.9c-0.7-1.6-0.9-2.6-2.8-2c-1.2,0.4-2.1-1-3.3-0.7c-0.1,0-1.2,0-1.9,0.2c-0.4,0.1-1.1,0.2-1.5,0.2l-1.5-0.3l0,0L251.3,163z" class="svg-map__location" tabindex="0" role="none" aria-label="hojai"></path><path id="020" name="west-karbi" d="M210.7,174.5l1.2-1c1.2,0.2,0.8,0.2,1.6,0.5c0.7,0.2,0.7-0.2,1.3-0.1c0.9,0.1,1-0.5,1.5-1c0.4-0.5,0.7-1.2,1.3-1.6l0.7-0.2l0,0c1.3,0.5,0.9,0.5,1.8,1.1c0.9,0.6,1.8-1.1,2.5-1.1c0.6,0,1.9-0.5,1.9-1.2c0-1,0.9-2.3,2-2c0.7,0.2,2-0.7,1.6,0.4c-0.1,0.2-0.1,0.6-0.3,1c-0.4,1-0.3,1.6,0.1,2.5c0.4,0.9,1.2,0.3,1.7-0.1c0.2-0.2,1.6-1.2,1.8-0.7s0.1,0.7,0.6,1.4c0.7,1,0.7,0.7,1.5,1.4c0.8,0.8,0.1,1.4-0.2,2.3c0,0.1,0,0.1-0.1,0.2c-0.1,0.7-0.2,0.7-0.3,1.2c-0.2,0.7,1.1,1.3-0.2,2c-0.1,0-1.1,0.7-1,0.9c0.3,0.7-0.6,1.4-1,2c-0.5,0.9-0.6,1.1,0.4,1.5c0.6,0.3,1.6,0.1,2.2-0.3c1.5-1,2-1.2,3.8-1.5c1.6-0.3,1.6-3.1,3.2-3c0.6,0,1.7,0.6,2.4-0.1c0.6-0.6,0-1.5,0.4-2.5c0.5-1.1,2.2-0.6,3.2-0.6l0,0c0,1.1-0.2,0.8-0.2,1.4c0,0.4,1.5,1.5,1.5,2.4c0,1.4-0.7,1.1-0.2,2.8c0.2,0.6,0.1,3.5,1.4,2.4c1.1-0.9,1.1,0,1,0.9c-0.2,1.4,1,2.3,2.3,2.4c2.1,0.1,2,2,3.1,3.2l0.1,0.1c1,0.8,1.5,1,2.7,1.1c0.5,0,4.1-0.6,4.6-0.7c0.6-0.2,2.1-0.8,2.6-0.2c0.7,0.8,1.1,1.3,1.7,2.2c0.6,0.9,0.5,1,1.3,1.7c0.4,0.4,1.1,1.1,1.1,1.7c0,0.6-0.1,0.8-0.5,1.2l-0.1,0.1l0,0c0,0-2.5,1.6-2.2,0.5c0.2-0.8-0.2-2.9-1.4-2.4c-0.5,0.2,0,3.5-1.3,3.2c-0.6-0.2-0.8-2.4-1.7-1.6c-1.4,1.3-1.2-0.5-2,2.5c-0.2,0.6-0.6,0.9-1.2,0.8c-0.2,0-1.4,0.6-1.7,0.8c-0.5,0.4-0.9,0.6-1.6,0.5c-1.1-0.2-2.9,0.7-3.5,1.7c-0.3,0.5-0.6,1-0.9,1.5c-0.2,0.9-0.5,1.5-1.2,2.1c-0.5,0.5-1.8,0.4-1.8,1.9c0,0.7,1.2,0.6-0.7,2.4c-1.2,1.1-0.1,1.6-1.4,2.8c-0.4,0.4-1.2,1.7-1.9,1.7c-1.3,0-0.8-1-2.5,0c-0.3,0.2-0.5,0.5-1,0.8c-0.7,0.4-1,0.4-1.9,0.7l0,0c0.2-1-0.4-0.9-1-0.4c-1,0.9-2,1.6-3,2.4c-1.1,1-2.3,2.9-2.9,0.7c-0.2-1-0.4-1.9-0.8-2.9c-0.2-0.7-0.5-2.2-0.9-2.5c-1.7-1.4-2.2-0.7-3.6-1.5c-1.9-1-1.6-1.7-2.5-3.2c-1.1-1.9,0.2-2.1-2.8-1.9c-0.3,0-0.6-0.2-0.8-0.5c-0.4-0.6-0.1-2.2,0.2-3c0.4-1.2-0.8-1.2-1.8-1.4c-1-0.2-0.7-0.4-1.3-0.8c-0.9-0.7-2.6,0.5-3.5,1c-0.9,0.4-1.8,1.1-2.7,1.5c-1.8,0.7-3.9,1.4-5.9,1.2c-0.9-0.1-2-0.7-2.6,0c-0.6,0.6-1,1.1-1.7,1.7c-0.5,0.4-1.3,1.9-1.7,2c-1,0.2-0.6-1.9-0.8-2.6c-0.3-0.7-0.6-1.7-0.2-2.5c0.7-1.6,1-1.4,0.5-3.3c0-0.4-0.1-0.8-0.1-1.1c-0.2-1.4,0.2-2.2,0.1-3.4c-0.1-0.7,0.4-1.6,0.8-2c1.2-1.4,0.6-0.9,0.8-2.5c0.2-1.3,1-1.5,1.8-2.1c0.2-0.2,1.6-1.6,1.4-1.8c-0.8-0.6-1.8-0.1-2.6-0.7c-0.7-0.5-1.8,0.8-2.1-0.2c-0.2-0.8,0.1-1.3-0.4-2.7c0.1-0.1,0.4-0.7,0.5-0.8c0.6-1.1,2.8-3,4-3.6c0.9-0.5,1.2-1.1,2-1.6c1.2-0.8,3.3-2.7,4.3-3.7C210.1,175.5,211.1,174.7,210.7,174.5L210.7,174.5L210.7,174.5z" class="svg-map__location" tabindex="0" role="none" aria-label="west-karbi"></path><path id="002" name="barpeta" d="M106.7,142l2.6,1.8c0.9,0.2,0.8,0,1.6-0.1c1.3-0.2,1.5-0.1,2.4,0.8c0.5,0.5,0.1,2-0.5,2.4c-1.2,0.9-0.2,1.7-2.5,2.8c-0.6,0.3-0.7,1-0.7,1.6c0,0.5,0.8-0.7,1.2,0.5c0.6,1.9,1.3-0.5,1.9-0.5c0.6,0,0.8,0.4,1.5-0.5c0.6-0.8,0.5-1.1,1.5-1.9c1-0.7,1.7-0.7,2.3,0.4c0.5,0.8,0.1,1.6,1,2.5c0.6,0.7,0.8,1.4,1.2,2.1l0,0.1c0.3,0.7,0.6,1.4,1,2c0.7,0.8,2.5,1.1,3.5,1.2l0,0c0,0.6,1.6,1,0.6,1.7c-0.6,0.5-3.3,1.4-1.2,2.7c2.1,1.3,0.8,2.1,0.9,2.7l-0.2,1.2l0,0c-0.5,0.1-2.7,0.2-3.2,0.1c-0.5-0.2-2.6,0.5-3.2,0.7c-0.8,0.4-3.6,0.9-4.4,0.5c-0.8-0.4-1.9,0.3-2.3,1c-0.4,1-3.5,3-4.2,2.7c-1.1-0.4-1.8,0.7-2.7,1c-1.1,0.4-1.5,0.5-2.8,1.1l0,0c-1.2,0.2-5.9,1.2-6.4-0.5c-0.6-2-4.2-1.3-5.4-2c-1-0.5-3-0.9-4.1-1.2c-2.9-0.9-3.3,0.4-4.4-2.6c-0.8-2.1-0.7-1.9-1.8-4l0,0l-0.3-2.4c0.4-0.6,0.9-1.4,1.5-1.7c1.2-0.8,3.6,0.4,3.6-2.3c0-1,1.2-2.4,2.1-2.4c1.4,0,1.5,0.2,2.9-0.2c2.3-0.7,1.3-2.8,1.7-3.6c1.1-2.7,3,0.4,3.7-1.5c0.4-1.2-0.3-2-0.5-2.7c-0.1-0.3,0.4-2.5,0.5-2.9c0.4-1.1-2.5-0.4-3-0.1c-0.9,0.5-0.9-1.1,0.2-2.3c0.7-0.7-0.5-1.2-0.1-2c0.3-0.8-0.7-1.8,0.7-1.8c2.3,0,1.9-1.2,1.4-2.9l0,0c-1-0.5-0.8-0.6-1.3-1.4c-0.5-0.7,0.2-1.4,1.1-1.2c0.3,0.1,1.6,0.1,1.6,0.2l0.7-0.5l0,0c0.3,0.3,0.7,0.8,1.3,0.8c0.5,0,2.2-1.7,2.7-1.7c0.6,0-0.4,1.5,0.3,1.8c0.3,0.2,1.1-1,1.2-1.3c0.4-1.9,0.7-0.5,1.7-1.2c1.2-0.9,1.1-0.3,2.5-0.5c1-0.2,0.2,0.4-0.1,1.1c-0.2,0.5-0.6,1.2-0.7,1.7c0,0.7,0.1,1,0,1.7c-0.1,0.9-0.5,1.5-0.5,2.7c-0.8,2.7-0.9,1.4-2.2,2.7c-0.9,0.8,1.7,0.6,1,2.2c-0.3,0.7,2,2.6,2.5,3.1C106.4,144.3,107.5,143.4,106.7,142L106.7,142L106.7,142z" class="svg-map__location" tabindex="0" role="none" aria-label="barpeta"></path><path id="019" name="kamrup" d="M168.4,139.2c-1.3,2.3-0.6,2.3,0,4.2c0.6,2.2,1.5,1.9,2.8,3.6c0.6,0.8,1.8,4,1,4.8c-1.2,1.1-3,1.3-2.7,3.9c0,0.4,0.2,0.9,0,1.3c-0.7,1.2-0.9,1.2-1,2.3c-0.1,0.8-0.2,1.2-0.5,1.9c0,0.1-0.1,0.4-0.2,0.5l0,0c-1.1,0.6-3.8,2.3-4.6,0.5c-0.2-0.4-1.3-1.8-1.7-2c-0.5-0.2-1.9,2.4-2,3c-0.1,0.5-0.8,0.9-0.9,2.3c0,0.4-0.6,2-1.5,1.7c-0.8-0.3-1.7,1.1-2.9,1.2c-1.5,0.1-3.6,1.8-1.9,3.1c1.8,1.2-1.3,3.3,1.4,3.1c1-0.1,3,0.2,3.9,0.5c0.8,0.3,2,1.1,3.1,1.5c0.2,0.1,3.7,2.1,3.9,2.2l0,0c0.1,0.7,0.2,1.9,0.3,2.6c0.2,1.3-0.7,2.8-0.7,3.8s-0.5,1.4-1.3,1.8c-0.7,0.4-1.5,1.2-1.9,1.3c-1.9,0.7-2.2-0.9-4-0.3c-2.1,0.7,0.1-3,0.3-3.5c0.5-1.1,0.4-1.3-0.1-2.3c-0.8-1.7-0.2-2-0.3-2.6c-0.1-0.4-2.7-0.2-3.4-0.4c-0.7-0.2-0.7-1.4-1.5,0.6c-0.5,1.4-0.7,1.7-1.4,3c-0.8,1.5-0.8,1.4-2.4,2.1c-0.3,0.5-0.4,1.4-0.3,2c0.1,1-1,1.1-1.2,1.7c-0.3,1,1.5,0.1,1.1,0.7c-0.1,0.2-1,1-1.3,1.3c-0.6,0.7-1.8,1-1.9,1.4c-0.1,0.8,1.2,1,1.7,1c0.5,0,2.4-0.7,2.3-0.4c-0.2,0.8-3,1-3.7,1c-1.8,0-2.6,1.6-4,1.2c-1.8-0.6-1.4-1.4-3.8-0.1c-1.9,1-3.6-0.2-4.5,1.4c-1.2,2.1-2.1,4.3-3.2,6.4l-0.1,0.2c-0.3,0.6-0.7,1.2-1.5,1.4c-1.2,0.2-1.5-0.2-2.6,0.9c-1.7,1.7-3.2,0.1-3.6-1.7c-0.7-2.6-0.5-3.1,0.5-5.6c1.9-4.9,1.7-3.4-1.4-3c-1.2,0.2-1.9-0.5-2.7,0.3c-0.8,0.8-2.1,1.3-3.2,1.5c-0.4,0.1-2.8,0.9-3.1,0.6c-0.7-0.7,1-2.1,1.1-2.8c0.1-0.4-1,0-1.2,0.1c-0.9,0.2-2.7,2-3.5,2.6c-0.4,0.3-1,0.2-1.2-0.1c-0.1-0.3,0.6-2.2,0.7-2.5c0.4-0.5,0.5-0.7,0.7-1.3c0.2-0.4,0.9-1.5,0.7-1.9l0,0c0-0.5,0.4-1.7,0.4-1.9c0.1-0.9,0.6-2.4,0.7-3c0-0.4,1.7-3,1.9-3.2c0.5-0.6,1.2-2.7,1.5-3.3c0.7-1.3-1.2-1.8-2.2-2.3c-0.9-0.4-1.6-0.4-2.4-0.6c-1.1-0.3-1.2-0.4-2.2-0.9c-2.4-1.1-2.8-1.1-4.7-3.3l0,0c1.3-0.6,1.7-0.7,2.8-1.1c0.9-0.3,1.6-1.4,2.7-1c0.8,0.3,3.8-1.8,4.2-2.7c0.3-0.8,1.4-1.5,2.3-1c0.8,0.4,3.6-0.1,4.4-0.5c0.5-0.3,2.6-1,3.2-0.7c0.5,0.2,2.7,0,3.2-0.1l0,0c2.1,0.9,3,1.5,5.4,1c0.3-0.1,2.8-0.4,3.1-0.4c1.7,0,1.3,3.2,4.6,2.7c0.3,0,1.6-0.5,1.7-0.5c0.1-1.1,0.2-3.2,0-4.4c-0.2-1.7,0.6-1.5-0.1-4c-0.1-0.5-0.1-1.8,0.8-1.7c2.2,0.3,1.8-2,2.4-3.8c0.6-1.7,0.4-2.2,2.3-2.2c0.8,0,0.7,0,1.4-0.7c0.2-0.3,1.7-2.8,1.7-3.1c-0.1-1.4,0.6-1.4,1.1-2.7c0.3-0.8,1.1-0.7,1.3-1.4c0,0,0.3-0.5,0.3-0.5c0.5-2.7-0.3-1.4-0.9-3.1c-0.3-0.8,1.2-1.9,1.1-3.2c-0.1-1.5-0.2-1-0.6-2.2c-0.3-1,1.3-0.7,2.1-1.1c0.2-0.1,0.4-0.2,0.6-0.2l0,0c0.3,0.3,1.4,1.3,2,1.7c1.1,0.6-0.8,1.7,0.5,2.9c0.8,0.8-1.2,2.7,1.8,2.4c0.8-0.1,2.2-0.3,2.8-0.1c0.8,0.3,1.8-2.1,2.5-2.5c0.4-0.2,1.6-2.3,2.4-0.7c0.2,0.3,1.7,0,2.8,1.2l0,0L168.4,139.2z" class="svg-map__location" tabindex="0" role="none" aria-label="kamrup"></path><path id="027" name="nalbari" d="M125,157.3c0,0.6,1.6,1,0.6,1.7c-0.6,0.5-3.3,1.4-1.2,2.7c2.1,1.3,0.8,2.1,0.9,2.7l-0.2,1.2l0,0c2.1,0.9,3,1.5,5.4,1c0.3-0.1,2.8-0.4,3.1-0.4c1.7,0,1.3,3.2,4.6,2.7c0.3,0,1.6-0.5,1.7-0.5c0.1-1.1,0.2-3.2,0-4.4c-0.2-1.7,0.6-1.5-0.1-4c-0.1-0.5-0.1-1.8,0.8-1.7c2.2,0.3,1.8-2,2.4-3.8c0.6-1.7,0.4-2.2,2.3-2.2c0.8,0,0.7,0,1.4-0.7c0.2-0.3,1.7-2.8,1.7-3.1c-0.1-1.4,0.6-1.4,1.1-2.7c0.3-0.8,1.1-0.7,1.3-1.4c0,0,0.3-0.5,0.3-0.5c0.5-2.7-0.3-1.4-0.9-3.1c-0.3-0.8,1.2-1.9,1.1-3.2c-0.1-1.5-0.2-1-0.6-2.2c-0.3-1,1.3-0.7,2.1-1.1c0.2-0.1,0.4-0.2,0.6-0.2l0,0l0.4-2.1c0.1-0.8-0.5-1.2-1.2-1.3c-1.9-0.2-3.8,0.5-5.3,1.7c-3.5,2.9-1.2-2.2-3.9-1.5c-3.5,0.9-2,0.9-2,2.4c-1.7,0-4.4,0.6-6,0.9c-0.5,0-0.6,0.9-0.8,1.3c-0.2,0.7-1.7,1.4-2.4,1.7c-3.1,1.4-1.5-1.2-2.7-1.4c-1.4-0.2,0.2-1.2,0.5-1.7c1.2-1.7-1.5-1.2-1.8-0.9c-0.5,0.6-1.2,1.1-1.9,1.6l0,0c2.1,2.2,1.3,2,0.1,4.1c-0.6,1-1,2.3-1,3.5c0,0.6,0.1,3.8,0.3,4.2c1.3,2.7,3.3-0.3,3,2.2c-0.1,0.7-1.4,2.8-1,4c0.2,0.5-0.3,1.5-0.5,1.9c-0.9,1.9-0.7,1-1.9,1.7C125.1,156.8,124.9,157.1,125,157.3L125,157.3L125,157.3z" class="svg-map__location" tabindex="0" role="none" aria-label="nalbari"></path><path id="034" name="bajali" d="M106.7,142l2.6,1.8c0.9,0.2,0.8,0,1.6-0.1c1.3-0.2,1.5-0.1,2.4,0.8c0.5,0.5,0.1,2-0.5,2.4c-1.2,0.9-0.2,1.7-2.5,2.8c-0.6,0.3-0.7,1-0.7,1.6c0,0.5,0.8-0.7,1.2,0.5c0.6,1.9,1.3-0.5,1.9-0.5c0.6,0,0.8,0.4,1.5-0.5c0.6-0.8,0.5-1.1,1.5-1.9c1-0.7,1.7-0.7,2.3,0.4c0.5,0.8,0.1,1.6,1,2.5c0.6,0.7,0.8,1.4,1.2,2.1l0,0.1c0.3,0.7,0.6,1.4,1,2c0.7,0.8,2.5,1.1,3.5,1.2l0,0c0-0.2,0.1-0.4,0.6-0.7c1.3-0.8,1,0.2,1.9-1.7c0.2-0.4,0.7-1.4,0.5-1.9c-0.5-1.1,0.9-3.2,1-4c0.3-2.6-1.6,0.4-3-2.2c-0.2-0.4-0.3-3.6-0.3-4.2c0-1.2,0.4-2.5,1-3.5c1.2-2,2.1-1.8-0.1-4.1l0,0c0.1-0.2,0.1-0.6,0.1-0.8c-0.4-1.1,2.4-2.1,2.5-3.1c0.2-1.4-2-1.4-2.7-1.5l-0.1-0.1c-0.7-1.1,0.1-2-0.2-2.5c-1.8-2.6-2.1-0.3-3,0c-1.1,0.4-0.1-1.1-2-0.8c-1.7,0.2-0.6-1.8-1.3-2.1c-1.4-0.6-2-1.8-3-1.5c-1.7,0.6-1.5,1.8-0.8,3.2c0.2,0.4,2.3,1.7,0.7,2.7c-1.3,0.9-0.4,2.2-1.9,2.8c-3.9,1.5-1.2,2.2-2.4,3.3c-2,1.8-2.4-1-3.4-0.7c-0.8,0.2-1.8-0.1-2.1,0.8c-0.1,0.3,0.3,3.3,0.5,3.6C107.7,139,105.9,140.5,106.7,142L106.7,142L106.7,142z" class="svg-map__location" tabindex="0" role="none" aria-label="bajali"></path><path id="001" name="baksa" d="M106.7,142c-0.8-1.5,1-3,0.8-3.5c-0.2-0.4-0.5-3.3-0.5-3.6c0.2-0.9,1.2-0.6,2.1-0.8c1-0.3,1.5,2.5,3.4,0.7c1.2-1.1-1.5-1.8,2.4-3.3c1.5-0.6,0.6-1.9,1.9-2.8c1.5-1.1-0.5-2.4-0.7-2.7c-0.7-1.4-0.9-2.6,0.8-3.2c1-0.3,1.6,0.9,3,1.5c0.6,0.3-0.4,2.3,1.3,2.1c1.9-0.3,0.9,1.2,2,0.8c0.8-0.3,1.2-2.7,3,0c0.3,0.5-0.5,1.3,0.2,2.5l0.1,0.1c0.7,0.1,2.9,0.1,2.7,1.5c-0.1,0.9-2.9,2-2.5,3.1c0.1,0.2,0.1,0.6-0.1,0.8l0,0c0.7-0.5,1.4-1,1.9-1.6c0.2-0.3,3-0.8,1.8,0.9c-0.3,0.4-1.9,1.5-0.5,1.7c1.2,0.1-0.4,2.7,2.7,1.4c0.7-0.3,2.1-1,2.4-1.7c0.1-0.4,0.2-1.3,0.8-1.3c1.6-0.3,4.3-0.9,6-0.9c0-1.5-1.5-1.5,2-2.4c2.7-0.7,0.4,4.4,3.9,1.5c1.5-1.2,3.3-1.9,5.3-1.7c0.7,0.1,1.3,0.5,1.2,1.3l-0.4,2.1l0,0c0.3,0.3,1.4,1.3,2,1.7c1.1,0.6-0.8,1.7,0.5,2.9c0.8,0.8-1.2,2.7,1.8,2.4c0.8-0.1,2.2-0.3,2.8-0.1c0.8,0.3,1.8-2.1,2.5-2.5c0.4-0.2,1.6-2.3,2.4-0.7c0.2,0.3,1.7,0,2.8,1.2l0,0l1,0c0.5-0.2,0.9-0.2,0.7-0.8c-0.1-0.5-0.7-1.1-0.8-1.4c-0.2-0.6-0.3-0.5,0.1-1.2l0,0c-0.2-0.7-1.2-1.4-1.2-3c0-0.9-0.5-2.2-0.7-2.8c-0.1-0.6-0.7-1.2-1.2-1.5c-0.9-0.4-0.9-1.9-0.7-2.5c0.5-1.4,0.3-1.1-0.3-1.9c-0.4-0.6-0.2-3.8,0-4.5c0.2-0.8,0-2.3-0.4-3c-0.8-1.4-0.9-2.5-1.4-4.2l-0.5-3.5l0,0c-2.1,0.6-4.1,0.8-6.4-0.4c-0.7-0.4-3.5,1.1-4.6,1.4c-2.9,0.7-3.6,0.8-6.7,1c-0.8-0.3-3-2.3-4.1-2.9c-1.5-0.8-1.8-0.4-2.7,0.8c-1,1.4-3.4,3-5.2,3c-2.7,0-2.5-0.3-4.6-1.5c-1.1-0.6-1-0.3-1.7-1.3c-0.2-0.2-3.1,0-3.5,0c-1.8,0.1-3.5,0.4-5.2,0.5h-0.3c-1.7,0-2.8-1.4-4.2,0.1c-0.8,0.8-2,2.5-3.2,2.5c-1,0-2.8-0.8-4.4-0.8c-1.1,0-2.2,0-3.3,0.1l0,0l-1.5,2.5c-0.8,1.9-1.2,2.3-1.5,4.2c-0.2,1.3-1.6,1.6-1.5,4.2c0,0-0.4,3.2-0.4,3.2c-0.2,0.5-0.1,3.5-0.5,3.9c-0.3,0.4-0.8,1.5-1,1.6l0,0c0.3,0.3,0.7,0.8,1.3,0.8c0.5,0,2.2-1.7,2.7-1.7c0.6,0-0.4,1.5,0.3,1.8c0.3,0.2,1.1-1,1.2-1.3c0.4-1.9,0.7-0.5,1.7-1.2c1.2-0.9,1.1-0.3,2.5-0.5c1-0.2,0.2,0.4-0.1,1.1c-0.2,0.5-0.6,1.2-0.7,1.7c0,0.7,0.1,1,0,1.7c-0.1,0.9-0.5,1.5-0.5,2.7c-0.8,2.7-0.9,1.4-2.2,2.7c-0.9,0.8,1.7,0.6,1,2.2c-0.3,0.7,2,2.6,2.5,3.1C106.4,144.5,107.6,143.6,106.7,142L106.7,142L106.7,142z" class="svg-map__location" tabindex="0" role="none" aria-label="baksa"></path><path id="022" name="kokrajhar" d="M59.6,141.9c0.2,1.9,0,2.9,1.3,4.4c0.1,0.1,0.2,0.7,0.4,1l0.4,1.5l0,0c-0.5,0.2-1.4,0.5-2,0.5c-1.4,0.1-1.3,1.5-0.7,2.4c0.8,1.4-2.5,1.7-1.3,4.3c0.6,1.5-1.6,1.2-2.2,0.8c-1-0.6-2.7,0.5-3.3,1.3c-1.7,2.1-1.9,0.4-3.3-0.8c-0.6-0.5-0.2-1.9,0.1-2.3c1-1.2-0.9-2.8-2.1-3c-1.9-0.3-0.2-2.2-2-1.5c-2.9,1.2-3,0.2-3.9,0.4c-1.4,0.3-1.6-0.3-1.9-0.3c-2.2,0.1-2.4,0.3-2.2,2.8c0,0.3,0.2,0.5,0.3,0.8c0.4,0.9,0.7,0.9,0.9,1.3c1.2,1.9-1.3,1.8-2,2.1c-1.6,0.7,1,1.9,1.3,2.1c1.2,0.9,0.6,1.1,0.5,2c0,1.6-1.8,2.5-3.1,3c-1,0.5-3.3,2.4-3.5,2.5c-0.9,0.4-1.9,2.1-2.8,2.5c-0.5,0.2-3.1,0.3-3.4,0.2c-0.6-0.2-2.8-0.3-3.4-0.1c-2.9,1.1-1.6-0.7-2.7-0.9c-1.8-0.3-1.7-1-2-2.9c0-0.4,0-2.4-0.1-2.7c-0.4-0.9-0.6-3-0.2-3.9c0.3-0.8,0.1-1.2,0.1-2c0-1.4,0.7-3.2,2-4c0.7-0.5,0.5-2.4,0-2.7c-1-0.5-1.8-1.7-2.5-2.5l-1.7-1.6l0,0c0.9-0.3,1.2-1.3,0.6-1.3c-0.9,0-1.1,0.8-0.6-1c0.2-0.2,0.3-0.3,0.5-0.5c0.3-0.3,1-0.9,1.2-1c0.4-0.5,0.3-1.2,0.4-1.6c0.1-0.5-0.2-1.9-0.5-2.3c-0.7-1.3-0.5-2.4-0.2-3.7c0.2-0.9,0-1.5,0.3-2.6c0-0.2-0.1-0.6,0-0.7c0.1-1,0.4-1.3,0.9-2c0.4-0.7,0.7-0.7,1-1.4c0.4-0.8-0.5-2.4-1.1-2.6c-0.7-0.3-0.9-1-0.5-1.7c0.5-0.8,0.5-0.2,0.8-1.2c0.1-0.4-0.1-1.2-0.2-1.6c-0.3-1-0.6-1.8-0.8-2.8l0,0c0.3-0.9,0.2-1.3,0.2-2.2c0-0.7,1.2,0,1.7,0c0.7,0.1,1.2,0.3,2,0.4c2.5,0.2,3.8,0.2,6.3-0.4c1.5-0.4,3.2-0.4,4.7-0.4c1.7,0,3.2-0.9,4.9-1.2c0.2,0,0.5-0.1,0.7-0.2c1.9-0.9,3.6-1.1,5.5-1.8c0.6-0.2,0.3-0.7,0.2-1.4c-0.1-0.7-0.2-0.7-0.3-1c0-0.3,0.6-1.3,0.7-1.7c0.3-0.8,0.5-1.3,0.7-2.2c0.4-1.3,1.6-0.8,2.7-0.8c0.7,0,1.3,0,2,0c2.5-0.1,3.7,0.2,5.4-1.5l0,0l0.9,4.9c0.3,0.8,0.7,1.6,0.8,2.4c0.2,2.4,1.7,5,1.5,7.3c-0.2,1.9-1.5,0.9-1.5,5.2c0,0.8,1,1.8,0.4,3.2c-0.3,0.7-0.1,2.9,0.2,3.6c0.5,1.1,2.1,3,2.2,3.7c0.5,2,0.7,1.3,0,3c-0.1,0.3,0.7,1.2,0.7,1.7C59.3,139.9,59.6,141.4,59.6,141.9L59.6,141.9L59.6,141.9z" class="svg-map__location" tabindex="0" role="none" aria-label="kokrajhar"></path><path id="007" name="chirang" d="M94.5,133.9c-1-0.5-0.8-0.6-1.3-1.4c-0.5-0.7,0.2-1.4,1.1-1.2c0.3,0.1,1.6,0.1,1.6,0.2l0.7-0.5l0,0c0.2-0.2,0.7-1.3,1-1.6s0.2-3.3,0.5-3.9c0,0,0.4-3.2,0.4-3.2c-0.1-2.5,1.3-2.9,1.5-4.2c0.3-1.9,0.8-2.3,1.5-4.2l1.5-2.5l0,0c-2.1,0.1-4.2,0.4-6.3,0.7c-1.6,0.2-2.7,0.1-4.3,0.6c-1.5,0.2-3.1,0-4.5,0.2c-2.1,0.2-5.2,0.4-7.2-0.5c-1.6-0.7-4-1.4-5.7-1.7c-0.7-0.1-1.5-0.4-2.2-0.6c-0.9-0.3-2.6-1.6-3.2-2.3c-1.9-2-3.4-2.5-5.6-4c-0.5-0.4-0.6-0.3-1.2-0.9c-0.8-0.7-1.3-0.9-2-1.5c-0.4-0.3-1.8-0.3-2.3-0.2c-0.8,0.1-1.4,0-2.1,0.1c-1.2,0.1-1.6,2-2.1,2.6c-0.2,0.2-0.4,0.4-0.5,0.6l0,0l0.9,4.9c0.3,0.8,0.7,1.6,0.8,2.4c0.2,2.4,1.7,5,1.5,7.3c-0.2,1.9-1.5,0.9-1.5,5.2c0,0.8,1,1.8,0.4,3.2c-0.3,0.7-0.1,2.9,0.2,3.6c0.5,1.1,2.1,3,2.2,3.7c0.5,2,0.7,1.3,0,3c-0.1,0.3,0.7,1.2,0.7,1.7c0,0.5,0.3,1.9,0.5,2.4l0,0c2.3-0.4,1.8-0.6,3.5-1c0.7-0.2,2-1.2,1.6-0.2c-0.5,1.3-0.6,1.9-0.5,3.2c0.1,1.9,2.3,1.5,2.6-1.3c0.1-1.1,1-2.4,1-3.3c0-0.9,1.1-3.1,2.2-1.8c0.6,0.7,2.7,0.7,3.5-0.3c0.5-0.6,2.1-2.2,2.9-1.4c0.5,0.5,0,0.6,0.9,1.5c1,1,4.1,0.4,4.9,1.2c0.1,0.1,0.4,0.2,0.5,0.2c1.1,1.2,0.8,1,1.5,2c0.8,1.1,2.7,0.1,2-1.4c-0.3-0.8,0.7-1.5,1.5-1.5c0.7,0.1,1-0.9,0.6-1.6c-0.5-1,0.2-1.5,1-1.8c0.3-0.1,1.6,0.1,2,0.4C91.8,135.2,93.6,134.1,94.5,133.9L94.5,133.9L94.5,133.9z" class="svg-map__location" tabindex="0" role="none" aria-label="chirang"></path><path id="004" name="bongaigaon" d="M59.6,141.9c0.2,1.9,0,2.9,1.3,4.4c0.1,0.1,0.2,0.7,0.4,1l0.4,1.5l0,0c1.7,1.7,1.4,1.9,2.5,3.7c0.5,0.8,1.3,3.3,0.2,3.9c-1,0.5-1.6,2.6-2.1,3.7c-0.7,1.6-2.8,1.6-3.8,3c-0.1,0.1-0.4,0.4-0.4,0.4l0,0c2.5,0.8,1.3,0.6,3.1,0.7c2.1,0.2,0.9,2.2,3.9,0.7c1.6-0.8,4.2-1.6,6-1.5c1.8,0,2.8-1.7,5.4-0.7c0.6,0.2,1.7,0,2.4,0l1.3-0.2l0,0l-0.3-2.4c0.4-0.6,0.9-1.4,1.5-1.7c1.2-0.8,3.6,0.4,3.6-2.3c0-1,1.2-2.4,2.1-2.4c1.4,0,1.5,0.2,2.9-0.2c2.3-0.7,1.3-2.8,1.7-3.6c1.1-2.7,3,0.4,3.7-1.5c0.4-1.2-0.3-2-0.5-2.7c-0.1-0.3,0.4-2.5,0.5-2.9c0.4-1.1-2.5-0.4-3-0.1c-0.9,0.5-0.9-1.1,0.2-2.3c0.7-0.7-0.5-1.2-0.1-2c0.3-0.8-0.7-1.8,0.7-1.8c2.3,0,1.9-1.2,1.4-2.9l0,0c-0.9,0.2-2.7,1.2-3.2,0.8c-0.4-0.3-1.7-0.5-2-0.4c-0.8,0.3-1.6,0.8-1,1.8c0.4,0.7,0.1,1.7-0.6,1.6c-0.7-0.1-1.8,0.6-1.5,1.5c0.6,1.5-1.2,2.5-2,1.4c-0.7-0.9-0.4-0.7-1.5-2c-0.1,0-0.4-0.1-0.5-0.2c-0.8-0.8-3.9-0.2-4.9-1.2c-0.8-0.8-0.4-1-0.9-1.5c-0.8-0.8-2.4,0.7-2.9,1.4c-0.8,1-2.9,1-3.5,0.3c-1-1.2-2.1,1-2.2,1.8c0,0.8-1,2.2-1,3.3c-0.2,2.9-2.4,3.2-2.6,1.3c-0.1-1.4,0-2,0.5-3.2c0.4-1-0.9,0-1.6,0.2C61.5,141.2,62,141.5,59.6,141.9L59.6,141.9L59.6,141.9z" class="svg-map__location" tabindex="0" role="none" aria-label="bongaigaon"></path><path id="030" name="south-salmara" d="M15.5,190.8l2,0.6c2.5-0.7,1.3-0.7,2.5-1.3c1.5-0.8,2.1,0.1,2.6-2.8c0.1-0.4,0.2-0.8,0.5-1.1c0.5-0.5,1.1-0.5,1.9-1.2c0.6-0.6,1.1-1.3,1.6-2.1c0.7-1.3,2.2-1.4,3.5-1.4c1,0,2.4-0.9,3.1-1.6c0.8-0.9,1.2-1.7,2.5-1.8c0.5,0,0.9-1.4,3-1.4l2.4,0.2l0,0c1.1,1.2,2.5,2.5,1.4,4.2c-0.7,1.1-3.5,1.4-3.6,1.5c-0.3,0.3-0.6,1.3-0.6,1.8l0,0c-0.9,0.3-1.8,1-2.2,1.5c-0.5,0.6-1.6,1.3-1.9,1.8c-0.6,0.9-2.1,2.4-3,2.9c-1,0.5-2.1,0.2-2.3,1.5c-0.1,0.8,0.2,0.7-0.1,1.9c-0.4,0.5-0.5,0.6-1,0.9c-1.3,1-1.5,0.6-2.7,1.1c-2.3,1.1-1.2,1.4-1.5,3.3c-0.2,1.3,0.7,2-0.2,2.9c-0.6,0.6-0.5,1.2-1,1.5c-1.2,0.8-2,0.3-2.9,0.5c-0.7,0.1,0,1,0.2,1.2c1.1,1.2,1.2,2.1,2.5,3.1c0.2,0.1,0.5,0.4,0.6,0.6c0.5,0.9,0.5,1.3,0.7,2.2c0.1,0.4,0.7,1.4,1,1.7c0.8,0.9,2.4,1.3,3.4,2.5c0.8,0.9-0.3,1.8-1.1,2.1c-1.2,0.4-0.8,0.4-1.7,1c-0.7,0.5-0.9,0.9-1.8,1c-1.1,0.2-1.4,0.4-2.3,0.7c-0.5,0.1-2.5,0.5-2.7,0.6c-1.4,0.6-0.5,1.5-0.9,2.5c-0.2,0.7-0.2,0.6-0.2,1.2c-0.1,1.7-0.4,1.6-1.5,2.8l0,0c0-0.2,0.1-0.7,0.1-0.8c0-0.9,0.1-0.9,0.5-1.9c0,0,0-0.1,0-0.1c0.2-0.4-0.2-1.3-0.4-1.6c-0.4-0.5-0.5-1.3-0.1-1.8c0.5-0.6,1.2-1.7,1.5-2.5c0.5-1.5,0.4-3.4,0.3-4.9c-0.1-0.8-0.1-0.8-0.5-1.6l-0.1-0.2c-0.6-1.1-1-2-1.6-3.1c-0.5-1-1.4-5.1-1.2-6.2c0.4-1.9,0.8-1.5,0.3-3.4c-0.2-0.6-0.2-1.1-0.3-1.7c-0.1-0.7-0.1-2.7-0.1-3.3c-0.1-0.1,0-0.7,0-0.9C14.1,192.1,15,191.7,15.5,190.8L15.5,190.8L15.5,190.8z" class="svg-map__location" tabindex="0" role="none" aria-label="south-salmara"></path><path id="010" name="dhubri" d="M61.7,148.8c1.7,1.7,1.4,1.9,2.5,3.7c0.5,0.8,1.3,3.3,0.2,3.9c-1,0.5-1.6,2.6-2.1,3.7c-0.7,1.6-2.8,1.6-3.8,3c-0.1,0.1-0.4,0.4-0.4,0.4l0,0c-1.9,1.4-1.6,1.2-3.7,1c-1.3-0.1-1.4-0.5-3.1-0.2c-3.2,0.6-2.3,0.9-3.8,3.5c-0.4,0.6-3,1.8-3.8,2.4c-1,0.7-1.7,0.8-1.9,2.4c-0.2,2,0.6,2.5,0.5,3.1c0,0.3-0.9,1-1.3,1l0,0l-2.4-0.2c-2,0-2.5,1.3-3,1.4c-1.3,0.1-1.6,0.9-2.5,1.8c-0.7,0.7-2,1.6-3.1,1.6c-1.4,0-2.8,0.1-3.5,1.4c-0.4,0.7-1,1.5-1.6,2.1c-0.7,0.8-1.4,0.7-1.9,1.2c-0.3,0.3-0.4,0.7-0.5,1.1c-0.5,3-1.1,2-2.6,2.8c-1.2,0.6,0.1,0.6-2.5,1.3l-2-0.6l0,0c0.6-1,1.8-2.6,2.1-3.7c0.4-1.7-0.4-1.3-1.5-1.2c-0.6,0.1-1.5,0.4-1.9,0.3c-0.7-0.2-0.5-0.8-0.5-1.3l0.1-0.1c0.4-0.6,1-1,1.2-1.4c0.5-0.9,0.2-1.5-0.2-2.3c-0.5-1-0.6-1.1-1.7-1.5c-1.5-0.5-0.7-1.9-1.2-2.4c-0.7-0.7-0.8-1.5-0.7-2.4c0-0.9,0-1-0.7-1.5s-0.7-0.5-0.7-1.3c0-0.5-0.5-0.8-0.9-0.9c-0.5-0.2-0.6-0.8-0.5-1.3c0.3-1.4-0.1-1-0.5-2c-0.2-0.7-1.6-1-2.2-1.2l0,0c0,0,0-0.1,0.1-0.1c0.3-1.1,0.3-1.3-0.7-1.7c-1.1-0.5-0.2-1.7,0.4-2.2c0.7-0.6-1.3-1-0.6-1.4c0.5-0.3,0.3,0.2,1.2-0.5c0-0.1,0-0.1,0-0.2c0.1-0.7-0.3-1-0.9-1.3c-1.2-0.7-0.7-1.7,0.5-1.2c0.9,0.3,0.5-0.2,0.5-0.9c0.1-1.6-1.1-1.7-0.9-2.4c0.2-0.8,1.1,0.1,1.5,0.1c2.2,0.2,0.4-1.4,0.8-1.9c0.6-0.7,1,0.6,1.7-0.3c0.3-0.4,1.1-0.8,1.2-1.3c0.1-1-0.6-0.5,0.6-1.5c0.6-0.6,1.2-1.1,2.2-1c1.4,0.2,0.2-1.4,1.6-1.9l0,0l1.7,1.6c0.7,0.8,1.5,2,2.5,2.5c0.5,0.3,0.7,2.2,0,2.7c-1.3,0.7-2,2.6-2,4c0,0.8,0.2,1.2-0.1,2c-0.4,0.9-0.1,2.9,0.2,3.9c0.1,0.3,0.2,2.3,0.1,2.7c0.3,1.9,0.2,2.6,2,2.9c1.1,0.2-0.2,2,2.7,0.9c0.6-0.2,2.7-0.2,3.4,0.1c0.3,0.1,2.9,0.1,3.4-0.2c0.9-0.4,1.9-2.1,2.8-2.5c0.1-0.1,2.4-2,3.5-2.5c1.3-0.6,3.1-1.5,3.1-3c0-0.9,0.6-1.1-0.5-2c-0.3-0.3-2.9-1.4-1.3-2.1c0.7-0.3,3.2-0.2,2-2.1c-0.2-0.4-0.6-0.4-0.9-1.3c-0.1-0.3-0.2-0.4-0.3-0.8c-0.2-2.5,0-2.7,2.2-2.8c0.3,0,0.5,0.6,1.9,0.3c0.9-0.2,1,0.9,3.9-0.4c1.7-0.7,0.1,1.2,2,1.5c1.2,0.2,3.2,1.8,2.1,3c-0.3,0.4-0.7,1.8-0.1,2.3c1.4,1.2,1.6,2.9,3.3,0.8c0.6-0.8,2.3-1.9,3.3-1.3c0.6,0.4,2.8,0.7,2.2-0.8c-1.1-2.6,2.2-2.9,1.3-4.3c-0.5-0.9-0.6-2.3,0.7-2.4C60.2,149.3,61.2,149.1,61.7,148.8L61.7,148.8L61.7,148.8z" class="svg-map__location" tabindex="0" role="none" aria-label="dhubri"></path><path id="013" name="goalpara" d="M58,163.6c-1.9,1.4-1.6,1.2-3.7,1c-1.3-0.1-1.4-0.5-3.1-0.2c-3.2,0.6-2.3,0.9-3.8,3.5c-0.4,0.6-3,1.8-3.8,2.4c-1,0.7-1.7,0.8-1.9,2.4c-0.2,2,0.6,2.5,0.5,3.1c0,0.3-0.9,1-1.3,1l0,0c1.1,1.2,2.5,2.5,1.4,4.2c-0.7,1.1-3.5,1.4-3.6,1.5c-0.3,0.3-0.6,1.3-0.6,1.8l0,0c0.9-0.3,1.8-0.3,2.3,0.5c1.5,2.5,2.8-0.3,4.7-0.3c1.2,0,0.8,0.4,2.7,0.1c1.4-0.2,2.8-0.4,4.2-0.5H52c1.8-1,3.7-2.3,5.3-3.7c1.2-1,2-0.7,2.7,0.5c0.9,1.5,2.3,1.1,3.4,0.1c0.4-0.4,1.7-1.5,2.2-0.7c0.4,0.6,1.7,2.1,2.4,2.5c0.6,0.4,1.5,1,1.3,1.8c-0.2,1.4-0.8,2.5-1,4.2c-0.2,1.8,0,1.4,1.3,0.5c0.8-0.6,1.5-1.2,2.2-1.9c0.7-0.5,1.8-2.3,2.4-2.4c0,0,0.3,0.2,0.5,0.3c0.4,0.2,2.2,0.7,2.2,1.2c-0.1,0.5-1.3,1.7-0.7,2.8c0.4,0.7,1.2-0.5,1.7-0.8c0.1-0.1,0.2-0.2,0.3-0.2c0.9-0.9,1.8-1.2,2.7-2c0.6-0.5,2.2-1.1,3.1-1c1.3,0.2,2.9-1.2,2.6,0.7c-0.2,1.1,0.8,0.3,0.7,2c0,0.5,0.6,0.8,1,1c0.6,0.2,1-0.5,1.6-0.8c1.5-1,1-1.1,1.7-2.3c0.3-0.5,0.9-1.1,1.3-0.4c0.8,1.1,1.9,0.6,3.1,0.5c0.8,0,1-0.2,1.9-0.1c1.3,0.1,0.7-0.1,1.9,0.4c1.5,0.6,3.2-1.2,3.7,1.4c0.2,0.8,0.4,0.7,0.3,1.7c-0.2,2.2,0.9,1.9,2.7,2c0.4,0,2.6-0.3,2.7,0.1l0,0c0-0.5,0.4-1.7,0.4-1.9c0.1-0.9,0.6-2.4,0.7-3c0-0.4,1.7-3,1.9-3.2c0.5-0.6,1.2-2.7,1.5-3.3c0.7-1.3-1.2-1.8-2.2-2.3c-0.9-0.4-1.6-0.4-2.4-0.6c-1.1-0.3-1.2-0.4-2.2-0.9c-2.4-1.1-2.8-1.1-4.7-3.3l0,0c-1.2,0.2-5.9,1.2-6.4-0.5c-0.6-2-4.2-1.3-5.4-2c-1-0.5-3-0.9-4.1-1.2c-2.9-0.9-3.3,0.4-4.4-2.6c-0.8-2.1-0.7-1.9-1.8-4l0,0l-1.3,0.2c-0.6,0-1.8,0.2-2.4,0c-2.7-1-3.7,0.7-5.4,0.7c-1.8,0-4.4,0.8-6,1.5c-3,1.4-1.8-0.6-3.9-0.7C59.4,164.1,60.5,164.4,58,163.6L58,163.6L58,163.6z" class="svg-map__location" tabindex="0" role="none" aria-label="goalpara"></path><path id="021" name="karimganj" d="M233.3,280.5c-0.4,1.2-0.3,2-1.4,2.9c-0.6,0.4-2,2-2.2,2.7c-0.4,1.1,0,1.1-0.2,1.9l0,0.1c0,1.8,0,1.4-1,2.8c-0.7,0.9-0.4,1.8-1.2,3c-0.6,1-1.7,2.5-1.2,3.7c0.7,1.7,0.6,3.9,0.4,5.8l0,0.2c0.1,1.2-0.1,1.4,0.6,2.3c0.8,1-0.5,3-0.4,4.3c0,0.5-0.2,1.3-0.1,1.8c0,0.2,0.2,1.9,0.2,2.1c0,1.5,0.4,2.6,0,4.3c-0.2,1-0.5,1.9-0.8,2.8l0,0.1c-0.1,1.6-0.6,2.4-0.9,3.8c-0.2,0.8-0.9,2.8-1.3,3.4c-0.2,0.3-0.5,1.2-0.8,1.6c-0.3,0.6-0.8,1.6-1.3,2c-0.5,0.5-1.7,2.1-2.2,2.7l0,0l-9,0l0,0l-7.1,0l0-0.2c0.5-1.6,0.6-2.3,1.4-3.8c0.7-1.2,1.2-2.6,1.7-3.9c0.9-2.2,0.9-1.9,1-4.4v-0.2c0-1.2-0.1-2.7-0.6-3.8c-0.6-1.4,0.4-2.5-0.8-3.6c-1.2-1.2-1.1-1.9-1.8-3.3l0,0c0,0,0-0.1,0-0.1c0.5-1.2,0.7-1.9,0.7-3.2c0-0.2,0-0.4,0-0.7c0.1-1.5,0.3-2.8,0.4-4.3c0.1-0.8,0.5-2.3,0.5-2.9c0-1,0.6-2,1.6-2.1c0.7-0.1,0.8-0.1,1.5-0.3c2.1-0.7,0.7-1.9,0.1-3c-0.5-0.9,0.1-1.3,0.7-2.1l0-0.2c0.2-1,0.3-1.6-0.7-2.1c-1.1-0.6-1.1-2.8-1.1-3.9c0-1.9,0.2-1-0.6-2.7c-0.6-1.3-2.3-2.2-1.7-3.7c0.5-1.3,0.4-1.1-0.1-2.3c-0.2-0.5,0.8-0.5,1-0.6c0.7-0.1,1.2-0.3,1.9-0.5c0.6-0.1,1.5-0.7,1.9-0.1c0.8,1,1.2,1.3,2.3,2c0.5,0.3,0.8,0.9,1.2,0.6c0.7-0.5,0.8,0,1.6,0.6c0.8,0.6,1.6,0.5,2,0.6c1.2,0.5,1.4,0.2,2.4,0.4c2,0.5,1.2,1.3,3.1-0.1c0.5-0.4,0.5-0.5,1.1-0.5c0.7,0,1-0.5,1.2-1l0,0l2.6,0.6c2,0.2,1.3,0.3,3.2-0.1c0.7-0.1,1.4-0.6,2-0.1C233.1,280.3,233.2,280.5,233.3,280.5L233.3,280.5L233.3,280.5z" class="svg-map__location" tabindex="0" role="none" aria-label="karimganj"></path><path id="005" name="cachar" d="M225.3,280l2.6,0.6c2,0.2,1.3,0.3,3.2-0.1c0.7-0.1,1.4-0.6,2-0.1c0,0,0.1,0.2,0.2,0.2l0,0c0.8,0.4,1.6,1,2.4,1.2c0.2,0,1.1,0.8,1.2,1.3c0,0.2,1.3,1.7,2,1.7c0.7,0,1.3,0.1,1.6,0.9c0.3,0.8-1.2,1.7-1.3,3.6c0,0.7-0.4,1.9-0.4,2.7c0,0.6-1,1.8-0.7,4c0.2,1.7,1,1.3,0.9,3.4c-0.1,1.9-0.4,1.5,1.3,2.7c0.5,0.4-1.2,0.7-0.8,2.4c2.6,3.1,2.8,2.5,5.9,1.3c0.2-0.1,0.7,0.7,1.2,1c3,1.7,0,1.1,0,3.4c0,0.2,0.8,2.2,1,2.5l0,0c0.1,0,0.1,0,0.2,0.2c0.2,0.7,0.6,1.3,0.8,2.2c0.4,1.5,0.6,4,1.3,5.2c0.5,0.9,2.2,1.2,2.4,2.4c0.2,2.1,0.5,1.4,1.9,0.5c0.6-0.4,1.4-0.6,2.2-0.6c1.4,0.1,1.2,0.2,2.1-0.6c1.3-1,0.9,1.4,3.7,0.1c1-0.5,2.2-0.5,3.3-0.3c0.4,0.1,1.2,0,1.7,0.1l0,0c0.7-0.2,1.6-0.2,1.6-1c0-1.1,0.2-0.7-0.1-2c-0.2-0.8,1.1-1.3,0.7-2.9c-0.3-1.3-0.5-1.9,0.4-3c0.4-0.5,0.9-1.2,0.7-1.8c-0.2-0.8,0.4-1.6,0.8-2.3c0.2-1.6,0.5-0.2,2-1.5c1.2-1,0.4-0.5-0.2-1.7c-0.5-1-0.7-0.5-0.1-1.7c0.5-1.1-0.7-2,0-3.3c0.8-1.4,1.2-1.9,0.1-3.3c-1.6-1.9,0.1-1.7,0.7-3.3c0.4-1,0.5-0.9,0.5-2.1c0-0.1,0-0.4,0.1-0.5c0-1.3,0.3-2.5,0.8-3.7c0.3-0.8,0.6-2.1,1.6-0.9c0.9,1.1,1,0.5,2.3,0.7c2.5,0.5,2.2-1,2.5-3c0.4-2.1-0.1-1.2,1.4-2.8c0.6-0.7,1-1.2,1.5-2c0.4-0.6,1-1.5,0.8-2.3c-0.2-0.6,1-1.2,0.4-2.2c-0.3-0.4,0.5-1.6,0.8-2c0.3-1.2-0.2-1.1-0.1-1.7l0,0c-0.4-0.2-3.3-0.5-3.8-0.6c-1.7-0.5-2-1.2-3.1-1.6c-2.1-0.6-3.8-0.1-5.7-0.4c-1.5-0.2-3.3,0.4-3.6-1.7c-0.1-0.6-0.5-0.9-0.7-1.2c-0.4-0.6-1.8-0.7-1.7-2.2c0-0.4,1.3-2.6,1.5-3c1-1.3-2.8,0.2-3.6,0.2c-3.6-0.1-3.6,2.4-4.9,2c-1-0.3-1.1,0-2,0c-2.2-0.1-3.4,1.2-4.7,1.2c-0.8,0-2.2-1-2.4-1.6c-0.7-1.8-0.6-0.8-1.3-0.7c-2.4,0.2-2.1-1.5-2.6-1.9c-2.1-1.9-0.2-2.6-1.9-2.8c-1.7-0.2-0.4,1.5-2.7,2.4c-0.2,0.1-3.2,0-3.6-0.1c-1.6-0.2-2.8,1.2-4.3,1.1c-1.2-0.1-0.8-0.2-2.6-0.2l-3.3,0.3l0,0c-0.1,0.2-0.4,0.3-0.7,0.1c-2-0.6-3.5-0.7-3.9,1.7c-0.2,1-3.5,3.7-4.3,4.2l0,0c0.3,1.7,0,3.8,0.4,5.3c0.1,0.5,2.2,0.2,2.3,0.5c0.2,0.6-0.8,2.1,0.9,1.5c1.7-0.6,1.4,0.2,1.6,1.7c0,0.4,0,0.7,0.1,1.2c0,0.3,0.1,1.5,0.1,1.8c-0.1,0.4-0.1,0.9-0.2,1.4l0,0V280z" class="svg-map__location" tabindex="0" role="none" aria-label="cachar"></path><path id="015" name="hailakandi" d="M233.3,280.5c0.8,0.4,1.6,1,2.4,1.2c0.2,0,1.1,0.8,1.2,1.3c0,0.2,1.3,1.7,2,1.7c0.7,0,1.3,0.1,1.6,0.9c0.3,0.8-1.2,1.7-1.3,3.6c0,0.7-0.4,1.9-0.4,2.7c0,0.6-1,1.8-0.7,4c0.2,1.7,1,1.3,0.9,3.4c-0.1,1.9-0.4,1.5,1.3,2.7c0.5,0.4-1.2,0.7-0.8,2.4c2.6,3.1,2.8,2.5,5.9,1.3c0.2-0.1,0.7,0.7,1.2,1c3,1.7,0,1.1,0,3.4c0,0.2,0.8,2.2,1,2.5l0,0c-0.3,0-0.9,1-1,1.1c-1,1.7-1.7,2.9-2.2,4.8c-0.3,0.9-0.6,1.5-0.9,2.3c-0.5,1.4-1.3,2.8-1.9,4.2c-1.5,3.7-2.3,1.7-4,2.4c-1.1,0.4-1.4,0.6-1.9,1.7l0,0.1c-0.4,1.5,0,2.7-0.2,4.1c-0.1,0.5,0.1,1-0.2,1.2c-0.5,0.5-2.4,0.5-3.3,0.9c-1,0.5-2.3,0.7-2.1,2c0.1,0.4,0,1.5,0,1.9c-0.2,2.4-1.5,1.7-2,2.9c-0.3,0.7-0.9,0.7-1.6,0.8c-0.5,0.1-1.5,1.2-1.8,1.6c-1.4,1.6-2-0.7-3.1-1.2c-0.7-0.4-0.4-1.5-0.6-2.2c-0.1-0.4-0.9-0.8-1.2-1l0-4.9l0,0c0.5-0.6,1.8-2.2,2.2-2.7c0.4-0.5,0.9-1.5,1.3-2c0.3-0.5,0.6-1.3,0.8-1.6c0.4-0.7,1.2-2.7,1.3-3.4c0.3-1.4,0.8-2.2,0.9-3.8l0-0.1c0.2-1,0.5-1.9,0.8-2.8c0.5-1.7,0-2.8,0-4.3c0-0.2-0.1-2-0.2-2.1c-0.1-0.5,0.1-1.4,0.1-1.8c0-1.3,1.2-3.3,0.4-4.3c-0.7-0.9-0.5-1.1-0.6-2.3l0-0.2c0.2-1.8,0.3-4-0.4-5.8c-0.5-1.2,0.6-2.7,1.2-3.7c0.7-1.2,0.5-2.1,1.2-3c1-1.4,1-1,1-2.8l0-0.1c0.1-0.8-0.2-0.8,0.2-1.9c0.2-0.7,1.6-2.3,2.2-2.7C232.9,282.5,232.8,281.7,233.3,280.5L233.3,280.5L233.3,280.5z" class="svg-map__location" tabindex="0" role="none" aria-label="hailakandi"></path><path id="006" name="charaideo" d="M411.6,83.6c-0.2,1.2-0.8,5.5-0.7,6.7c0.1,1.5-1.7,2.6-3,2.7c-0.6,0-1.7,2.4-2.5,3.2c-0.6,0.6-1.6,2-0.5,2.5c1,0.4,0.8-0.1,1.9,0.1c2.4,0.3,1.9,0.8,4.7,0c1.5-0.5,2.4-1.8,3.6-2.5c0.8-0.4,4.6-4.1,4.2-1.5c-0.1,0.5-0.1,2.3-0.1,2.9l0,0c1.2,0.6,1.8-0.6,3.1,0.8c0.5,0.5,0.3,1.6,1.7,1.6c0.5,0,4.9-1.8,5.4-2.1c0.7-0.4,1.5-0.6,2.2-1c0.7-0.4,2.3-1.6,2.8-2.2c0.4-0.5,0.7-1.4,1.5-1.4c1,0,1.1-1.6,2.4-2.1c0.3-0.1,0.8-0.4,1.2-0.4c0.3-0.1,0.5-0.2,0.8-0.3l0,0c1.5-0.6,1.9-0.4,3.8-0.4c1,0,3.3-2.5,4.3-3.2c0.8-0.6,1.5-1.2,2.4-1.8c1-0.6,2-2,3.3-1.7l0,0c-0.1-0.1-0.2-2.4-0.2-2.5c-0.1-1-0.1-0.9,0-1.9c0.3-2.3-0.9-2.6-3.1-2.7c-2.7-0.2-2.6-1.2-6-0.6c-2,0-2.7,2.4-4.4,2.6c-0.8,0.1-0.4,0.1-0.9,0.4c-1.2,0.5-1.4,1.9-2.7,2.2c-0.5,0.1-2.6,0-3.1-0.2c-1.5-0.6-2.4,0.1-3.2,0.1c-1.5-0.1-1.4-1.7-4.9-0.9c-0.8,0.2-1.8-0.6-2.1-1.3c-0.3-0.7-0.5-4.1-0.5-5c0-0.9-2,1.2-2.5,1.5c-1.3,0.7-3.1,2.9-4,4.1C415.1,80.6,413.2,82.3,411.6,83.6L411.6,83.6L411.6,83.6z" class="svg-map__location" tabindex="0" role="none" aria-label="charaideo"></path><path id="028" name="sivasagar" d="M392.6,79.2c1.2-1.7,1.2-2.2,2-3.9c0.8-1.6,0.6-4.3,3.1-4.2c0.5,0,1.1-0.1,1.5-0.5c0.1-0.1,1.5-3.1,2.1-2c0.8,1.6,1-0.4,2.2,0c1,0.3-0.3,1.4,1.9,1.7c0.4,0,1.9,1.1,1.7,2c-0.4,1.7-1.1,3-0.9,4.8c0.1,1.1-0.5,1.7,0.1,3.3c0.3,0.8,1.5,0.8,2.4,1.5c0.4,0.3,3.2,1.3,3,1.7l0,0c-0.2,1.2-0.8,5.5-0.7,6.7c0.1,1.5-1.7,2.6-3,2.7c-0.6,0-1.7,2.4-2.5,3.2c-0.6,0.6-1.6,2-0.5,2.5c1,0.4,0.8-0.1,1.9,0.1c2.4,0.3,1.9,0.8,4.7,0c1.5-0.5,2.4-1.8,3.6-2.5c0.8-0.4,4.6-4.1,4.2-1.5c-0.1,0.5-0.1,2.3-0.1,2.9l0,0c-1-0.5-1.9,0.5-2.5,1.1c-1.1,1.2-1.9,2.8-3.1,3.9c-0.7,0.7-1.1,1.7-1.5,2c-0.7,0.7-1.1,1.2-1.7,1.9c-0.1,0.1-0.1,1.1-0.7,1.8c-0.7,0.9-0.4,1.8-1.5,2.1c-1,0.2-0.6,0-1.5,0.6c-0.7,0.4-0.5,1-1.1,1.4c-1,0.7-1-0.6-1.6,0.5c-0.2,0.5-2.2,2.5-2.6,2.8c-1.2,0.9-1.7,0.9-3.1,1.2c-1.4,0.3-1.7,0.5-3.2,0.5c-1.4,0-1.6-1.6-1.7-0.8l0,0c-0.5-0.4-1.9-0.9-2.1-1c-0.9-0.6-1.8-0.6-2.7-1.3c-0.9-0.7-1.1-1.9-1.3-2c-1.3-0.7,0.1-2.5-0.7-3.5c-0.7-0.8-0.5,0.1-1.9-2l0-0.2c-0.5-2,1-3.7-1.1-4.6c-1.2-0.5-1.3-2.2-0.8-3.1c1-1.8-2.5-1.2-3.7-1.4c-1-0.1-1.1-0.4-2.1-1.3l0,0c0.2-0.2,2-1.5,2.3-1.7c0.7-0.5,1.8-1.7,2.4-2c2.2-1.2,1.1-2.7,2.6-3.6c1.4-0.8,1.3-0.8,2.5-1.8c1.2-1.1,2.2-2.2,3-3.6C390.6,81.9,391.6,80.7,392.6,79.2L392.6,79.2z" class="svg-map__location" tabindex="0" role="none" aria-label="sivasagar"></path><path id="031" name="Tinsukia" d="M447.4,31c1.1-1.3,1.1-1.1,2.5-1.6c1.2-0.4,3.5,0,4.5-1.4c1-1.4,1.8-0.9,2.4-3.1c0.2-0.8,0.6-1.8,1.3-2.3c1-0.7,1.2-0.7,1.8-1.9c0.5-0.9,2.7-1.5,3.1-2.5c0.9-1.9-0.4-1.3,2.2-2.5c0.8-0.4,0.9-1.6,1.2-2l0,0c0.9-1,1.7-1.2,2.7-2.4c1.1-1.4,1.1-2.2,2.5-3.4c1-0.8,1.5-1,2.8-1.2c0.8-0.2,2-0.3,2.9-0.4c2.1-0.3,4.4-0.3,6.5-0.7c3-0.6,6.1-0.3,9.1-0.5l0.3,0l1,0.2c0.8,0.2,4.5,0.4,5.5,0.3c1-0.1,1.2,0.1,2.1,0.1c0.8,0,0.3,1.2,0.1,1.6c-0.6,1.2-1.1,2.9-2.1,3.8c-0.9,0.8-0.6,0.9-1.1,1.7c-0.6,0.9-1.5,1.6-2.4,2.4c-0.8,0.7-1.6,1.2-2.3,2.1c-0.6,0.7-1.4,1.1-1.8,1.6c-0.7,0.8-0.9,1.1-1.8,1.8c-0.7,0.6-1.2,1.4-1.9,2c-2.2,1.9-0.5,2.9-1.6,3.7c-0.5,0.4-1.4,0.7-1,1.6c0.5,1.1,0.1,0.5,0.3,1.5c0.1,0.5,0.3,0.9,0.9,1.1c0.6,0.2,0.3,0.6,0.2,1c-0.2,0.6-0.1,0.7-0.4,1.5l0,0.1c0.4,1.4,0.5,0.7,1.1,1.6c1,1.4-0.6,1.7-0.4,3c0.3,2,2.9,1.2,2.9,2.1c0.1,1.5-0.5,1.2,0.8,2.1c0.6,0.4,0.6,0.5,1.5,0.5c0.4,0.2,0.5,0.3,0.9,0.6c0.5,0.5,1.2,0.4,1.4,1.1c0.4,1.5-0.8,2,0.2,3.8c0.2,0.5-0.6,2.2-0.9,2.6c-0.5,0.8-0.8,1.9-1.3,2.5c-1.4,2.1-0.4,1,0.2,1.9c0.5,0.8,1.6-1.2,2.2-1.2c1.1,0,0.2,2.5,0.6,2.5c0.3,0,1.2-2.2,2.1-2.7c0.5-0.3,1.7-0.4,2.2,0c0.6,0.6,1.5,0.5,2.1,1c0.4,0.3,0.9,0.4,1.1,0.7c0.3,0.6,0.9,1.1,0.9,1.7c0.1,1.6,0.8,1.2,1,2c0.2,0.8,0,1.7-0.6,2.3c-0.5,0.4-1,0.7-1.6,1.2c-0.4,0.2-0.6,0.5-0.8,0.8c-0.8,0.8-1.6,2-2.6,2.5c-1.4,0.8-1,0.2-2.3,1.5c-0.7,0.7-0.7,1-1.3,1.7c-0.8,0.9-2,0.3-2.3-0.6c-0.1-0.3-0.6-0.6-0.7-1c-0.2-1.3-2.3,1-2.8,0.2c-0.5-0.8-0.7,0-1.5,0.2c-1,0.2-1.3,0.3-2.2,0.7c-1,0.4-1.4,0.3-2.5,0.9c-0.8,0.3-1.6,0.5-2.4,0.8c-2.3,0.9-4.8,1.4-7.2,2c-0.9,0.2-3,0.9-3.5-0.4c-0.6-1.7-1.4-1.5-2.3-2.5c-1-1.1-3.4,0.2-4,1.1c-0.2,0.3-0.4,0.5-0.6,0.7l0,0c-0.6-0.6-1.8-1.5-2.3-2c-1.4-1.4-2.6-2.1-0.8-4.1c0.8-0.9,0.4-0.7,0.4-1.5c0-0.4-0.7-1.3,0-2.5c0.9-1.4-2.1-2-3-1.8c-1.2,0.3-1.2-0.4-2.3-0.8c-0.9-0.3-2,0-2.4-0.4c-0.9-1-1.3-0.2-2.2-0.4c-1.9-0.5-1.7-0.5-3.1-1.5c-1.8-1.3-4.6,0.7-4.6-0.7c0.1-2.7-2.2-0.7-1-3.9c0.2-0.5-0.3-2.9,0.2-3.1c0.7-0.2,0.9-0.2,1.8-0.4c0,0,0.2-0.4,0.2-0.5c0.6-0.8,0.1-1.2,1-2.5c0.7-1.1,0.2-1.1,0.2-1.7c-0.1-1.2,1.2-1.5,1.9-2c0.5-0.3,0.4-3.3,0.3-3.9c-0.6-2.4-1.2-3.3-1.3-6.1l0,0L447.4,31z" class="svg-map__location" tabindex="0" role="none" aria-label="Tinsukia"></path><path id="011" name="dibrugarh" d="M390.2,76.5l2.5,2.7l0,0c1.2-1.7,1.2-2.2,2-3.9c0.8-1.6,0.6-4.3,3.1-4.2c0.5,0,1.1-0.1,1.5-0.5c0.1-0.1,1.5-3.1,2.1-2c0.8,1.6,1-0.4,2.2,0c1,0.3-0.3,1.4,1.9,1.7c0.4,0,1.9,1.1,1.7,2c-0.4,1.7-1.1,3-0.9,4.8c0.1,1.1-0.5,1.7,0.1,3.3c0.3,0.8,1.5,0.8,2.4,1.5c0.4,0.3,3.2,1.3,3,1.7l0,0c1.5-1.3,3.4-3.1,4.6-4.7c0.9-1.2,2.7-3.4,4-4.1c0.5-0.3,2.5-2.4,2.5-1.5c0,0.9,0.2,4.3,0.5,5c0.3,0.7,1.3,1.5,2.1,1.3c3.6-0.9,3.4,0.8,4.9,0.9c0.8,0,1.7-0.7,3.2-0.1c0.5,0.2,2.6,0.3,3.1,0.2c1.3-0.3,1.6-1.7,2.7-2.2c0.5-0.2,0.1-0.3,0.9-0.4c1.7-0.2,2.4-2.6,4.4-2.6c3.4-0.6,3.3,0.5,6,0.6c2.2,0.1,3.4,0.4,3.1,2.7c-0.1,1-0.1,0.9,0,1.9c0,0.2,0.2,2.5,0.2,2.5l0,0c1.5,0.3,2.6-1.1,3.8-1.8c0.3-0.2,0.5-0.3,0.8-0.5c1.1,0,2.8,0,3.2-1.3c0.1-0.2-0.1-1.4,0-1.9c0.1-0.3,0-0.6,0.2-1c0.2-0.9,0.1-1.9,0.1-2.8c0-0.5,0.6-1.7,1-2.1c0.5-0.5,0.9-0.8,1.3-1.2l0,0c-0.6-0.6-1.8-1.5-2.3-2c-1.4-1.4-2.6-2.1-0.8-4.1c0.8-0.9,0.4-0.7,0.4-1.5c0-0.4-0.7-1.3,0-2.5c0.9-1.4-2.1-2-3-1.8c-1.2,0.3-1.2-0.4-2.3-0.8c-0.9-0.3-2,0-2.4-0.4c-0.9-1-1.3-0.2-2.2-0.4c-1.9-0.5-1.7-0.5-3.1-1.5c-1.8-1.3-4.6,0.7-4.6-0.7c0.1-2.7-2.2-0.7-1-3.9c0.2-0.5-0.3-2.9,0.2-3.1c0.7-0.2,0.9-0.2,1.8-0.4c0,0,0.2-0.4,0.2-0.5c0.6-0.8,0.1-1.2,1-2.5c0.7-1.1,0.2-1.1,0.2-1.7c-0.1-1.2,1.2-1.5,1.9-2c0.5-0.3,0.4-3.3,0.3-3.9c-0.6-2.4-1.2-3.3-1.3-6.1l0,0c-0.3,0.2-1.6,0.8-1.8,0.9c-0.8,0.3-3.2,2.7-3.8,1.4c-0.4-0.8-1-0.9-1.1-1.5c-0.2-1.3,0.5-0.7-0.5-2.6c-0.7,0.2-1.9,0.3-2.5,0.7c-2,1.1-2.2-0.1-4,2.1c-0.8,1-2.5,1.3-3.6,1c-3.1-0.8-2.4-0.8-5.2,0.5c-1.5,0.7-1.7,1.3-2.7,2.1c-1,0.8-0.9,2.5-3.2,3.1c-2.2,0.5-2.6,2.4-4.2,3.5c-1.3,1-2.8,2.6-3.7,4c-1,1.6-2.1,1.9-3.7,2.6c-0.5,0.2-1.3,2-1.5,2.6c-0.7,1.5-2,2.1-3.2,3.1c-0.4,0.3-1.1,0.8-1.5,0.9c-2.3,0.6-2.1,1.2-2.1,3.6c0,2-1.8,1.8-2,2.6c-0.2,1.2-0.7,0.9-2.3,1l0,0c-1.6,2.2-1,2.1-1.5,4.2c-0.2,0.9-2.2,2.9-1.7,4c0.1,0.3-0.3,3.4-0.5,3.9L390.2,76.5L390.2,76.5L390.2,76.5z" class="svg-map__location" tabindex="0" role="none" aria-label="dibrugarh"></path><path id="009" name="dhemaji" d="M366.1,45l1.3,2.8c0.3,1.3,0.4,2.2,1.1,3.3c0.4,0.5,0.3,2.3,0.8,3.2c0.3,0.5,0.5,2.6-0.2,3.2c-0.7,0.5-4.3-1.9-2.7,1.2c0.7,1.3,2.3,1.5,2.4,2.7c0,0.2,0.5,0.8,0.6,1c1.2,1.2,2,1.7,3,0c0.6-1,1.7-1.3,2.7-0.7c1.8,1.1,2-0.7,4.3,1.5c1.9,1.9,2.1,0.2,4.2-0.4c0.8-0.2,1,0.4,2.2-0.5c1.3-0.9,3-0.4,4.7-2.1c0.2-0.2,1.7-1.2,1.8-0.6c0.2,1.4,3.4-0.3,2.6,1.9c-0.1,0.3-0.5,0.8-0.2,1.2l0,0c1.6-0.1,2.2,0.2,2.3-1c0.1-0.9,2-0.6,2-2.6c0-2.4-0.2-3,2.1-3.6c0.5-0.1,1.2-0.6,1.5-0.9c1.3-1,2.5-1.6,3.2-3.1c0.2-0.5,1.1-2.4,1.5-2.6c1.6-0.7,2.7-0.9,3.7-2.6c0.9-1.5,2.3-3,3.7-4c1.5-1.2,2-3,4.2-3.5c2.2-0.5,2.1-2.2,3.2-3.1c1-0.8,1.2-1.5,2.7-2.1c2.8-1.2,2-1.3,5.2-0.5c1.1,0.3,2.8,0.1,3.6-1c1.7-2.3,1.9-1,4-2.1c0.7-0.4,1.8-0.5,2.5-0.7c1,2,0.3,1.3,0.5,2.6c0.1,0.6,0.7,0.7,1.1,1.5c0.7,1.3,3-1.1,3.8-1.4c0.3-0.1,1.5-0.7,1.8-0.9l0,0c1.1-1.3,1.1-1.1,2.5-1.6c1.2-0.4,3.5,0,4.5-1.4c1-1.4,1.8-0.9,2.4-3.1c0.2-0.8,0.6-1.8,1.3-2.3c1-0.7,1.2-0.7,1.8-1.9c0.5-0.9,2.7-1.5,3.1-2.5c0.9-1.9-0.4-1.3,2.2-2.5c0.8-0.4,0.9-1.6,1.2-2l0,0l-0.2,0c-1.3,0.4-2.7,0.8-4.1,1.1c-1.9,0.4-3.7,1.2-5.5,1.6c-1.8,0.4-3.4-0.9-5-1.6c-0.7-0.3-1.6-0.8-2.3-0.4c-0.9,0.5-1.6,0.7-2.5,1.1c-1,0.5-2,0.6-3,1c-1.8,0.7-4,1.4-5.7,2.3l-0.4,0.1c-1.1,0.3-2.2,0.7-3.2,1c-1.6,0.5-2.2,1-3.6,1.7c-0.7,0.3-2.4,1-2.8,1.2c-0.8,0.5-2.2,0.8-3.2,0.8c-1.8,0-3.1,0-4.8,0.9c-1.1,0.6-2.6,1.1-3.9,1.2c-0.7,0.1-1,0-1.4,0.6c-0.9,1.2-2,0.9-3.4,2.8c-1.3,1.7-2.8,0-4.8,2.3c-1.1,1.3-1.6,1.2-3.2,1l-0.1,0c-0.9,0.1-1.4,0.3-2.1,0.9c-1.6,1.5-2.5,0-4.2,1.7c-1.3,1.3-3.3,0.5-5.2,1.9c-1,0.8-1.6,1-2.9,1.2c-2,0.3-2.2,2.5-4.3,2.2c-0.6-0.1-1.9,0.7-2.4,1c-1,0.6-2-0.5-2.4-1.3c-0.6-1.1,0.1-1.3-1.1-1.2c-0.7,0.4-2,0.7-2.5,1.1c-1.7,1.3-2.4,0.1-3.7,0.1c-2,0-1.3-0.4-2.6-1.3c-0.8-0.6-1-0.8-1.9-0.1c-1.5,1-1-0.9-1.7-1.4c-1.1-0.6,0.5-2.5-0.6-2.2c-0.3,0.1-2.2,1.2-2.5,1.5c-1,1-0.5,2.6-0.2,3.8c0.1,0.2,0.3,0.4,0.5,0.6c0.3,0.4,1,0.9,1.1,1.1C365.8,43.4,366.5,43.4,366.1,45L366.1,45L366.1,45z" class="svg-map__location" tabindex="0" role="none" aria-label="dhemaji"></path></svg>